<svg id="Layer_1" data-name="Layer 1" xmlns="http://www.w3.org/2000/svg" viewBox="0 0 485.26 58.83"><defs><style>.cls-1{fill:#231f20;}.cls-2{fill:#fc972c;}</style></defs><title>SBGP_logo_2COLOR_RGB</title><path class="cls-1" d="M82.8,20c2.15.93,4.53,2.41,4.53,5.16s-2.48,5.09-6.15,5.09a9,9,0,0,1-6.47-2.57l2.57-2.8a6.7,6.7,0,0,0,4.09,1.8c.82,0,1.4-.42,1.4-1s-.65-1.33-3.41-2.52c-2.1-.91-3.72-2.36-3.72-4.84,0-2.83,2.36-4.86,5.91-4.86a8.43,8.43,0,0,1,5.77,2.22l-2.57,2.8A4.79,4.79,0,0,0,81.6,17c-.91,0-1.4.44-1.4.93C80.2,18.63,80.67,19.05,82.8,20Z" transform="translate(-8.74 -5.38)"/><path class="cls-1" d="M97.71,13.4a8.27,8.27,0,0,1,8.58,8.34,8.51,8.51,0,0,1-8.72,8.48A8.27,8.27,0,0,1,89,21.88,8.51,8.51,0,0,1,97.71,13.4Zm-.07,12.74a4.15,4.15,0,0,0,4.21-4.32,4.21,4.21,0,1,0-8.41,0A4.15,4.15,0,0,0,97.64,26.13Z" transform="translate(-8.74 -5.38)"/><path class="cls-1" d="M123.21,13.63v9.51c0,4.28-3,7.08-7.32,7.08s-7.17-2.66-7.17-6.94V13.63h4.51V23.1a2.81,2.81,0,1,0,5.61,0V13.63Z" transform="translate(-8.74 -5.38)"/><path class="cls-1" d="M133.79,17.49V30h-4.44V17.49h-4.44V13.63h13.32v3.86Z" transform="translate(-8.74 -5.38)"/><path class="cls-1" d="M150.33,23.56h-5.84V30H140V13.63h4.44v6h5.84v-6h4.44V30h-4.44Z" transform="translate(-8.74 -5.38)"/><path class="cls-1" d="M172.53,13.63c3.23,0,5.31,1.73,5.31,4.25a4.09,4.09,0,0,1-2.13,3.58,4.12,4.12,0,0,1,2.83,3.95C178.54,28,176.27,30,173,30h-8.11V13.63Zm-1,6.43c1.24,0,1.87-.7,1.87-1.52S172.76,17,171.52,17H169.3v3Zm-2.22,3.16V26.6h2.8a1.74,1.74,0,0,0,2-1.71c0-.91-.65-1.68-2-1.68Z" transform="translate(-8.74 -5.38)"/><path class="cls-1" d="M196.46,30h-4.91l-1-2.8h-5.8l-1,2.8h-4.67l6.43-16.36H190ZM187.7,18.75,186,23.68h3.39Z" transform="translate(-8.74 -5.38)"/><path class="cls-1" d="M198.18,30V13.63h4.44V26h7.48v4Z" transform="translate(-8.74 -5.38)"/><path class="cls-1" d="M217.85,17.49V30h-4.44V17.49H209V13.63h13.32v3.86Z" transform="translate(-8.74 -5.38)"/><path class="cls-1" d="M224.16,13.63h4.56V30h-4.56Z" transform="translate(-8.74 -5.38)"/><path class="cls-1" d="M236.51,21.09V30h-4.28V13.63h4.56l4.32,8.55,4.32-8.55h4.32V30h-4.28v-8.9l-3.32,6.57h-2.34Z" transform="translate(-8.74 -5.38)"/><path class="cls-1" d="M261.13,13.4a8.27,8.27,0,0,1,8.58,8.34A8.51,8.51,0,0,1,261,30.22a8.27,8.27,0,0,1-8.58-8.34A8.51,8.51,0,0,1,261.13,13.4Zm-.07,12.74a4.15,4.15,0,0,0,4.21-4.32,4.21,4.21,0,1,0-8.41,0A4.15,4.15,0,0,0,261.06,26.13Z" transform="translate(-8.74 -5.38)"/><path class="cls-1" d="M272.35,13.63h7.55c3.65,0,6.12,2.2,6.12,5.49a5.3,5.3,0,0,1-3.13,5L286.73,30h-5.14l-3.2-5.26h-1.59V30h-4.44Zm4.44,3.74v4h2.57a2,2,0,1,0,0-4Z" transform="translate(-8.74 -5.38)"/><path class="cls-1" d="M288.86,30V13.63h12.39v3.86H293.3v2.34h6.78v3.62H293.3v2.69h8.18V30Z" transform="translate(-8.74 -5.38)"/><path class="cls-2" d="M25.36,46.2a9.64,9.64,0,0,1,.09,1.21,7.88,7.88,0,0,1-8.13,8.25,8.27,8.27,0,0,1-8.58-8.34,8.51,8.51,0,0,1,8.72-8.48c4.51,0,6.43,2.62,6.43,2.62l-3.11,3.13a4.31,4.31,0,1,0-3.39,7.1c1.85,0,3.08-.84,3.48-2.34H17.16V46.2Z" transform="translate(-8.74 -5.38)"/><path class="cls-2" d="M43,55.43H38.06l-1-2.8h-5.8l-1,2.8H25.67L32.1,39.07h4.44ZM34.2,44.19,32.5,49.12h3.39Z" transform="translate(-8.74 -5.38)"/><path class="cls-2" d="M50.61,42.93v12.5H46.17V42.93H41.73V39.07H55.05v3.85Z" transform="translate(-8.74 -5.38)"/><path class="cls-2" d="M56.87,55.43V39.07H69.26v3.85H61.31v2.34h6.78v3.62H61.31v2.69h8.18v3.86Z" transform="translate(-8.74 -5.38)"/><path class="cls-2" d="M70.73,39.07h4.91l2.87,9.58,2.73-9.58H84.4l2.73,9.58L90,39.07h4.67L89.19,55.43H85.33l-2.64-9-2.62,9H76.22Z" transform="translate(-8.74 -5.38)"/><path class="cls-2" d="M110.94,55.43H106l-1-2.8h-5.8l-1,2.8H93.65l6.43-16.36h4.44Zm-8.76-11.24-1.71,4.93h3.39Z" transform="translate(-8.74 -5.38)"/><path class="cls-2" d="M115.35,49.59l-6.08-10.52h5.14l3.27,6.26L121,39.07h4.91l-6.08,10.52v5.84h-4.44Z" transform="translate(-8.74 -5.38)"/><path class="cls-2" d="M134.32,39.07h7.31c3.86,0,6.36,2.29,6.36,5.72s-2.64,5.84-6.5,5.84h-2.73v4.79h-4.44ZM138.76,47h2.45a2.11,2.11,0,1,0,0-4.21h-2.45Z" transform="translate(-8.74 -5.38)"/><path class="cls-2" d="M165,55.43h-4.91l-1-2.8h-5.8l-1,2.8h-4.67l6.43-16.36h4.44Zm-8.76-11.24-1.71,4.93h3.39Z" transform="translate(-8.74 -5.38)"/><path class="cls-2" d="M166.68,39.07h7.55c3.65,0,6.12,2.2,6.12,5.49a5.3,5.3,0,0,1-3.13,5l3.83,5.89h-5.14l-3.2-5.26h-1.59v5.26h-4.44Zm4.44,3.74v4h2.57a2,2,0,1,0,0-4Z" transform="translate(-8.74 -5.38)"/><path class="cls-2" d="M190.7,42.93v12.5h-4.44V42.93h-4.44V39.07h13.32v3.85Z" transform="translate(-8.74 -5.38)"/><path class="cls-2" d="M201.29,45.73v9.7H197V39.07h4.56l6.31,9.37V39.07h4.32V55.43h-4.32Z" transform="translate(-8.74 -5.38)"/><path class="cls-2" d="M215.67,55.43V39.07h12.39v3.85h-7.95v2.34h6.78v3.62h-6.78v2.69h8.18v3.86Z" transform="translate(-8.74 -5.38)"/><path class="cls-2" d="M231.21,39.07h7.55c3.65,0,6.12,2.2,6.12,5.49a5.3,5.3,0,0,1-3.13,5l3.83,5.89h-5.14l-3.2-5.26h-1.59v5.26h-4.44Zm4.44,3.74v4h2.57a2,2,0,1,0,0-4Z" transform="translate(-8.74 -5.38)"/><path class="cls-2" d="M254.32,45.4c2.15.93,4.53,2.41,4.53,5.16s-2.48,5.1-6.15,5.1a9,9,0,0,1-6.47-2.57l2.57-2.8a6.7,6.7,0,0,0,4.09,1.8c.82,0,1.4-.42,1.4-1s-.65-1.33-3.41-2.52c-2.1-.91-3.72-2.36-3.72-4.84,0-2.83,2.36-4.86,5.91-4.86a8.43,8.43,0,0,1,5.77,2.22l-2.57,2.8a4.79,4.79,0,0,0-3.15-1.45c-.91,0-1.4.44-1.4.93C251.72,44.07,252.19,44.49,254.32,45.4Z" transform="translate(-8.74 -5.38)"/><path class="cls-2" d="M271.85,49H266v6.43h-4.44V39.07H266v6h5.84v-6h4.44V55.43h-4.44Z" transform="translate(-8.74 -5.38)"/><path class="cls-2" d="M279.85,39.07h4.56V55.43h-4.56Z" transform="translate(-8.74 -5.38)"/><path class="cls-2" d="M287.92,39.07h7.32c3.85,0,6.36,2.29,6.36,5.72s-2.64,5.84-6.5,5.84h-2.73v4.79h-4.44ZM292.36,47h2.45a2.11,2.11,0,1,0,0-4.21h-2.45Z" transform="translate(-8.74 -5.38)"/><path class="cls-2" d="M337.69,55c-4.73,0-8.9-3.48-11.42-8.78-.95-3.08-1.39-7.58,3.87-10.18a1.76,1.76,0,0,0-.12-3.2c-5.13-2.6-4.69-7.06-3.75-10.12C328.79,17.44,333,14,337.69,14s8.9,3.48,11.42,8.78c.94,3.06,1.38,7.52-3.75,10.12a1.76,1.76,0,0,0-.12,3.2c5.25,2.59,4.81,7.1,3.87,10.18C346.59,51.54,342.42,55,337.69,55ZM316,34.8c0,16.24,9.67,29.41,21.6,29.41,8.34,0,15.56-6.45,19.16-15.87,1.12-2.92,4.82-7.86,14.61-8h48V57.69h9.07v-13a13.67,13.67,0,0,1,17.9,0V57.69h9.07v-13a13.67,13.67,0,0,1,17.9,0V57.69h9.07V40.31h6a5.51,5.51,0,1,0,0-11h-117c-9.79-.16-13.5-5.1-14.61-8C353.2,11.83,346,5.38,337.64,5.38,325.71,5.38,316,18.55,316,34.8" transform="translate(-8.74 -5.38)"/></svg>