<?xml version="1.0" encoding="utf-8"?>
<!-- Generator: Adobe Illustrator 16.0.0, SVG Export Plug-In . SVG Version: 6.00 Build 0)  -->
<!DOCTYPE svg PUBLIC "-//W3C//DTD SVG 1.1//EN" "http://www.w3.org/Graphics/SVG/1.1/DTD/svg11.dtd">
<svg version="1.1" id="Layer_1" xmlns="http://www.w3.org/2000/svg" xmlns:xlink="http://www.w3.org/1999/xlink" x="0px" y="0px"
	 width="640px" height="480px" viewBox="0 0 640 480" enable-background="new 0 0 640 480" xml:space="preserve">
<g>
	<!-- Background -->
	<path fill-rule="evenodd" clip-rule="evenodd" fill="none" d="M487.366,408.087c-123.281,0-246.562,0-369.843,0
		c0-123.281,0-246.562,0-369.843c123.281,0,246.562,0,369.843,0C487.366,161.525,487.366,284.806,487.366,408.087z M300.217,399.768
		c47.815-0.697,88.814-17.039,123.252-49.651c34.422-34.023,52.371-75.23,53.903-123.598c0.326-49.272-16.551-91.699-50.645-127.276
		c-33.831-33.588-74.564-51.181-122.216-52.745c-48.402-0.398-90.363,15.772-125.74,48.879
		c-35.47,34.647-53.598,76.799-54.671,126.332c0.261,48.376,17.052,90.074,50.525,125.028
		C209.469,381.461,251.549,398.941,300.217,399.768z"/>

	<!-- Ring -->
	<path fill-rule="evenodd" clip-rule="evenodd" fill="#000000" d="M300.217,399.768c-48.668-0.826-90.749-18.307-125.591-53.03
		c-33.474-34.954-50.264-76.651-50.525-125.028c1.073-49.533,19.202-91.685,54.671-126.332
		c35.377-33.107,77.338-49.277,125.74-48.879c47.652,1.564,88.385,19.157,122.216,52.745
		c34.094,35.577,50.971,78.003,50.645,127.276c-1.532,48.367-19.481,89.574-53.903,123.598
		C389.031,382.729,348.032,399.07,300.217,399.768z M425.042,223.499c-0.491-34.232-12.174-63.538-35.937-87.634
		c-23.228-23.553-51.701-36.009-84.762-36.928c-34.406-0.957-64.458,10.583-89.333,34.389
		c-24.835,23.769-37.777,53.179-38.365,87.599c-0.588,34.458,11.322,64.337,35.39,88.959c23.731,24.276,52.912,36.853,86.9,37.344
		c33.937,0.491,63.437-11.182,87.872-34.701C412.073,288.206,424.464,258.128,425.042,223.499z M166.292,267.337
		c0.174-0.321-0.048-0.555-0.165-0.793c-1.111-2.263-2.085-4.587-3.044-6.914c-6.143-14.917-10.296-30.373-12.467-46.359
		c-0.137-1.006-0.278-2.011-0.428-3.015c-0.034-0.231-0.052-0.528-0.395-0.499c-0.273,0.024-0.416,0.232-0.452,0.498
		c-0.022,0.161-0.028,0.324-0.034,0.486c-0.022,0.649-0.054,1.299-0.059,1.949c-0.056,7.556-0.006,15.106,0.731,22.639
		c0.384,3.92,0.795,7.836,1.397,11.729c0.36,2.328,0.775,4.647,1.144,6.974c0.154,0.97,0.045,1.134-0.882,1.129
		c-2.356-0.014-4.703,0.208-7.055,0.26c-1.016,0.022-2.033,0.008-3.047,0.06c-0.648,0.033-0.78,0.258-0.572,0.87
		c0.156,0.461,0.358,0.907,0.555,1.353c2.502,5.649,5.246,11.176,8.253,16.576c3.742,6.719,7.884,13.177,12.411,19.391
		c3.759,5.16,7.803,10.09,12.081,14.826c1.307,1.446,2.664,2.847,4.008,4.258c0.179,0.188,0.375,0.544,0.693,0.301
		c0.305-0.231,0.235-0.575,0.027-0.874c-0.116-0.167-0.24-0.328-0.353-0.497c-1.351-2.029-2.736-4.037-4.043-6.095
		c-4.562-7.178-8.56-14.661-12.098-22.395c-2.588-5.658-4.847-11.444-6.875-17.323c-0.139-0.402-0.505-0.903-0.161-1.255
		c0.387-0.395,0.914-0.012,1.359,0.117c2.809,0.813,5.61,1.65,8.421,2.454C165.575,267.282,165.917,267.494,166.292,267.337z
		 M435.086,267.53c3.363-0.977,6.48-1.885,9.6-2.786c0.452-0.13,1-0.564,1.357-0.211c0.429,0.422-0.054,0.992-0.213,1.464
		c-1.92,5.703-4.166,11.277-6.618,16.772c-2.586,5.797-5.509,11.415-8.695,16.898c-2.41,4.147-4.979,8.195-7.722,12.134
		c-0.23,0.331-0.756,0.754-0.239,1.14c0.421,0.315,0.699-0.248,0.966-0.51c1.971-1.938,3.809-4.002,5.631-6.076
		c6.397-7.279,12.169-15.027,17.344-23.224c5.326-8.435,9.931-17.248,13.925-26.384c0.437-1,0.287-1.286-0.774-1.273
		c-3.008,0.035-6.001-0.301-9.007-0.301c-1.876-0.001-1.888-0.021-1.552-1.827c0.945-5.074,1.616-10.186,2.188-15.315
		c0.721-6.465,0.851-12.959,1.13-19.446c0.111-2.601-0.301-5.191-0.188-7.793c0.013-0.282,0.018-0.586-0.172-0.817
		c-0.093-0.114-0.265-0.209-0.409-0.222c-0.176-0.016-0.269,0.149-0.296,0.321c-0.032,0.201-0.059,0.402-0.086,0.604
		c-0.263,1.891-0.501,3.785-0.791,5.671c-1.33,8.647-3.245,17.164-5.743,25.549c-2.162,7.252-4.758,14.344-7.802,21.273
		C436.321,264.536,435.608,265.857,435.086,267.53z M252.23,75.519c0.551,0.25,0.705,0.641,0.908,0.975
		c1.646,2.707,3.284,5.419,4.924,8.13c1.219,2.016,2.434,4.035,3.657,6.048c0.643,1.058,0.794,1.108,1.967,0.661
		c0.645-0.246,1.283-0.509,1.924-0.767c1.548-0.622,1.547-0.622,0.715-2.002c-3.836-6.367-7.672-12.735-11.508-19.103
		c-0.901-1.497-1.794-2.998-2.703-4.49c-0.533-0.874-0.575-0.883-1.558-0.503c-1.061,0.411-2.113,0.841-3.172,1.257
		c-0.518,0.203-0.701,0.514-0.662,1.12c0.232,3.604,0.403,7.21,0.6,10.816c0.15,2.755,0.318,5.508,0.457,8.264
		c0.036,0.705,0.133,1.427-0.089,2.132c-0.572-0.068-0.754-0.472-1.001-0.766c-2.329-2.764-4.646-5.539-6.966-8.311
		c-1.955-2.336-3.912-4.67-5.862-7.011c-0.295-0.354-0.55-0.707-1.104-0.479c-1.201,0.495-2.412,0.97-3.619,1.451
		c-0.445,0.177-0.609,0.512-0.54,0.97c0.042,0.281,0.097,0.56,0.154,0.838c1.75,8.513,3.501,17.026,5.256,25.538
		c0.123,0.597,0.278,1.187,0.418,1.779c0.108,0.461,0.414,0.59,0.826,0.435c1.14-0.43,2.272-0.877,3.406-1.324
		c0.446-0.176,0.591-0.532,0.523-0.984c-0.042-0.28-0.111-0.556-0.169-0.834c-1.119-5.409-2.24-10.817-3.354-16.228
		c-0.068-0.33-0.214-0.694,0.08-0.979c0.537,0.083,0.72,0.488,0.971,0.786c2.277,2.702,4.54,5.416,6.809,8.125
		c1.539,1.837,3.098,3.658,4.609,5.518c0.405,0.499,0.771,0.606,1.347,0.349c0.852-0.381,1.736-0.689,2.6-1.045
		c1.015-0.418,1.12-0.564,0.997-1.645c-0.261-2.301-0.232-4.618-0.397-6.924c-0.196-2.751-0.35-5.507-0.459-8.263
		C252.167,77.927,252,76.792,252.23,75.519z M282.64,88.647c0.771,0,1.546,0.052,2.312-0.016c0.641-0.057,1.277-0.228,1.903-0.392
		c8.421-2.2,14.448-11.96,9.759-22.029c-2.292-4.921-8.458-9.685-15.676-8.656c-1.956,0.279-3.83,0.767-5.526,1.765
		c-5.736,3.375-8.476,8.356-8.1,15.064C267.756,82.324,275.113,89.186,282.64,88.647z M413.925,107.818
		c0.202-9.082-7.411-15.509-15.269-15.574c-8.519-0.07-15.858,6.982-15.846,15.827c0.015,9.579,8.252,15.441,15.215,15.497
		C407.708,123.646,414.234,115.061,413.925,107.818z M178.017,162.34c-0.013-2.71-0.841-4.574-2.294-6.152
		c-2.271-2.467-6.585-3.947-10.194-1.53c-0.404,0.271-0.807,0.545-1.198,0.834c-0.377,0.279-0.663,0.281-0.836-0.212
		c-0.121-0.345-0.242-0.69-0.369-1.033c-0.373-1.01-0.95-1.884-1.776-2.581c-2.886-2.433-6.725-2.246-9.526,0.323
		c-1.061,0.973-1.854,2.161-2.486,3.442c-0.863,1.749-1.678,3.521-2.509,5.285c-0.765,1.622-0.752,1.602,0.899,2.347
		c5.147,2.324,10.286,4.665,15.427,7c2.885,1.311,5.764,2.635,8.654,3.934c1.36,0.611,1.38,0.594,1.983-0.712
		c0.954-2.065,1.921-4.125,2.828-6.212C177.349,165.397,178.031,163.693,178.017,162.34z M370.818,104.836
		c0.566-0.039,1.153,0.003,1.696-0.13c5.338-1.312,8.553-7.274,5.614-12.176c-0.873-1.456-0.852-1.528,0.771-1.995
		c3.906-1.125,6.133-6.234,3.684-10.144c-1.068-1.705-2.558-2.93-4.253-3.925c-1.715-1.007-3.468-1.949-5.204-2.919
		c-1.03-0.576-1.118-0.558-1.676,0.47c-1.162,2.141-2.312,4.288-3.471,6.43c-2.065,3.82-4.136,7.639-6.201,11.459
		c-1.159,2.143-2.323,4.282-3.461,6.436c-0.416,0.788-0.381,0.877,0.313,1.249c2.541,1.36,5.075,2.733,7.64,4.049
		C367.686,104.365,369.174,104.911,370.818,104.836z M293.236,367.768c0.457,0.179,0.404,0.538,0.424,0.845
		c0.173,2.674,0.338,5.348,0.505,8.021c0.122,1.945,0.167,3.899,0.387,5.833c0.175,1.541,0.135,1.282,1.41,1.517
		c0.646,0.12,1.293,0.132,1.94,0.152c0.796,0.026,0.86-0.03,0.862-0.787c0.002-0.771-0.029-1.544-0.081-2.314
		c-0.288-4.292-0.594-8.584-0.879-12.876c-0.184-2.755-0.336-5.511-0.517-8.266c-0.058-0.89-0.192-1.048-1.076-1.18
		c-0.721-0.107-1.457-0.112-2.18-0.206c-1.027-0.133-1.132-0.109-1.584,0.874c-0.917,1.993-1.81,3.998-2.714,5.996
		c-1.358,2.998-2.714,5.997-4.082,8.99c-0.156,0.34-0.244,0.773-0.743,0.873c-0.432-0.541-0.43-1.177-0.561-1.756
		c-1.144-5.072-2.287-10.146-3.378-15.229c-0.166-0.772-0.53-1.111-1.257-1.229c-0.883-0.144-1.784-0.067-2.663-0.279
		c-0.407-0.098-0.702,0.139-0.832,0.542c-0.087,0.271-0.165,0.544-0.242,0.817c-1.067,3.795-2.134,7.59-3.199,11.385
		c-0.999,3.561-1.999,7.12-2.988,10.683c-0.266,0.956-0.125,1.157,0.862,1.23c0.729,0.054,1.457,0.087,2.178,0.227
		c0.545,0.105,0.958-0.095,1.104-0.686c0.068-0.275,0.155-0.547,0.232-0.82c1.213-4.302,2.421-8.605,3.646-12.904
		c0.102-0.357,0.078-0.838,0.601-0.949c0.268,0.243,0.316,0.574,0.387,0.886c0.739,3.291,1.474,6.582,2.208,9.874
		c0.345,1.547,0.681,3.096,1.029,4.642c0.099,0.44,0.201,0.894,0.778,0.952c0.848,0.085,1.695,0.172,2.542,0.259
		c0.507,0.052,0.862-0.162,1.081-0.615c0.106-0.22,0.217-0.438,0.318-0.659c1.918-4.216,3.832-8.434,5.755-12.646
		C292.705,368.534,292.824,368.043,293.236,367.768z M304.899,85.096c0.006,0,0.011,0.001,0.017,0.001
		c-0.011,0.203-0.023,0.406-0.035,0.609c-0.054,0.971-0.055,0.977,0.917,1.165c0.958,0.186,1.94,0.085,2.907,0.274
		c1.092,0.212,1.375-0.073,1.468-1.189c0.268-3.196,0.532-6.392,0.808-9.587c0.038-0.444,0.099-0.892,0.212-1.321
		c0.129-0.495,0.578-0.598,0.893-0.211c0.175,0.215,0.286,0.49,0.397,0.749c0.644,1.492,1.283,2.986,1.917,4.482
		c0.985,2.318,1.966,4.638,2.946,6.958c0.193,0.457,0.368,0.883,0.984,0.933c1.454,0.119,2.904,0.289,4.356,0.428
		c0.407,0.039,0.65-0.109,0.479-0.566c-0.171-0.457-0.354-0.909-0.544-1.357c-1.538-3.628-3.087-7.251-4.616-10.883
		c-0.422-1.004-0.401-1.031,0.595-1.383c1.285-0.454,2.438-1.109,3.376-2.111c1.801-1.923,2.26-4.289,2.075-6.788
		c-0.247-3.361-2.527-6.114-5.761-6.912c-3.292-0.812-6.669-0.87-10.009-1.259c-0.589-0.068-0.903,0.169-0.955,0.8
		c-0.117,1.416-0.292,2.826-0.415,4.241c-0.283,3.235-0.54,6.473-0.825,9.708C305.7,76.284,305.296,80.689,304.899,85.096z
		 M194.503,136.776c0.494,0.023,0.76-0.288,1.003-0.627c0.569-0.792,1.138-1.584,1.698-2.382c0.967-1.377,0.961-1.366-0.653-1.783
		c-6.446-1.668-12.889-3.348-19.335-5.017c-2.987-0.773-5.984-1.508-8.961-2.314c-0.724-0.196-1.134-0.006-1.523,0.583
		c-0.626,0.949-1.311,1.859-1.972,2.785c-0.642,0.899-0.647,0.903-0.051,1.816c1.579,2.415,3.16,4.828,4.746,7.237
		c3.15,4.786,6.303,9.569,9.458,14.351c0.716,1.085,1.431,2.172,2.174,3.24c0.486,0.698,0.664,0.702,1.159,0.041
		c0.681-0.911,1.297-1.872,2.001-2.763c0.486-0.616,0.441-1.118,0.01-1.741c-0.854-1.235-1.615-2.536-2.47-3.772
		c-0.422-0.611-0.551-1.12-0.032-1.739c0.468-0.56,0.857-1.185,1.282-1.779c1.629-2.282,3.278-4.549,4.876-6.853
		c0.446-0.642,0.912-0.803,1.645-0.574c1.084,0.338,2.194,0.595,3.294,0.881C193.401,136.509,193.953,136.64,194.503,136.776z
		 M334.057,85.117c0.024-0.169,0.027-0.252,0.048-0.33c0.565-2.204,1.133-4.408,1.7-6.612c0.111-0.434,0.387-0.596,0.82-0.493
		c0.276,0.066,0.553,0.13,0.828,0.201c2.518,0.647,5.033,1.301,7.553,1.943c1.403,0.357,1.406,0.349,1.77-1.103
		c0.188-0.749,0.357-1.503,0.559-2.248c0.321-1.19,0.493-1.235-0.975-1.595c-2.603-0.638-5.197-1.315-7.794-1.98
		c-1.316-0.337-1.336-0.36-1.024-1.64c0.211-0.869,0.478-1.724,0.688-2.592c0.524-2.15,0.556-1.769,2.25-1.361
		c2.566,0.617,5.116,1.305,7.678,1.943c0.88,0.219,0.979,0.159,1.215-0.688c0.251-0.9,0.457-1.813,0.682-2.72
		c0.343-1.381,0.342-1.378-0.988-1.721c-3.344-0.861-6.686-1.729-10.029-2.585c-1.102-0.282-2.215-0.519-3.312-0.816
		c-0.61-0.166-0.902,0.023-1.045,0.633c-0.24,1.028-0.544,2.042-0.806,3.065c-2.011,7.875-4.021,15.75-6.025,23.626
		c-0.326,1.283-0.305,1.312,1.004,1.649c4.405,1.138,8.812,2.267,13.218,3.397c0.909,0.233,0.976,0.214,1.209-0.641
		c0.289-1.058,0.554-2.124,0.797-3.194c0.213-0.938,0.197-0.959-0.806-1.227c-1.805-0.481-3.615-0.943-5.424-1.411
		c-1.022-0.264-2.048-0.515-3.068-0.788C334.377,85.725,333.971,85.591,334.057,85.117z M453.935,159.144
		c-0.054-2.805-1.129-5.209-3.341-6.986c-3.158-2.537-7.619-2.238-10.188,1.078c-1.042,1.345-1.669,2.871-2.232,4.441
		c-0.781,2.181-1.379,4.419-2.046,6.636c-0.292,0.97-0.573,1.954-1.178,2.795c-1.233,1.714-3.164,1.94-4.744,0.54
		c-1.243-1.103-1.577-2.521-1.294-4.098c0.174-0.967,0.59-1.847,1.138-2.673c0.574-0.864,0.553-0.92-0.301-1.565
		c-0.583-0.44-1.194-0.843-1.798-1.257c-1.646-1.131-1.648-1.131-2.685,0.564c-1.013,1.657-1.769,3.439-1.692,5.391
		c0.097,2.49,0.937,4.777,2.548,6.72c2.288,2.759,5.758,3.747,8.988,2.594c2.575-0.919,4.271-2.745,5.312-5.217
		c0.964-2.29,1.497-4.72,2.254-7.077c0.41-1.275,0.826-2.552,1.315-3.798c0.369-0.94,1.073-1.487,2.156-1.484
		c1.072,0.003,1.757,0.585,2.227,1.444c0.462,0.845,0.564,1.772,0.36,2.723c-0.163,0.757-0.364,1.505-0.731,2.189
		c-0.292,0.545-0.203,0.901,0.383,1.159c1.114,0.491,2.22,1.005,3.319,1.528c0.43,0.204,0.677,0.081,0.86-0.334
		C453.312,162.775,453.897,161.053,453.935,159.144z M241.509,372.643c0.887,0.542,1.954,0.663,2.919,1.053
		c0.791,0.319,1.373,0.172,1.891-0.546c0.663-0.921,1.436-1.762,2.123-2.667c0.453-0.598,0.944-0.771,1.681-0.53
		c2.815,0.919,5.644,1.8,8.474,2.672c0.5,0.154,0.747,0.457,0.813,0.94c0.049,0.361,0.088,0.725,0.104,1.088
		c0.037,0.852,0.049,1.704,0.085,2.556s0.369,1.454,1.29,1.66c0.75,0.168,1.473,0.453,2.214,0.663c0.824,0.234,1.06,0.069,0.938-0.8
		c-0.175-1.252-0.157-2.51-0.239-3.764c-0.291-4.45-0.595-8.898-0.889-13.348c-0.168-2.549-0.34-5.098-0.482-7.647
		c-0.036-0.647-0.242-1.065-0.915-1.239c-0.745-0.192-1.485-0.424-2.201-0.705c-0.923-0.361-1.533-0.165-2.18,0.655
		c-5,6.344-10.055,12.644-15.085,18.964C241.829,371.924,241.52,372.167,241.509,372.643z M247.209,348.173
		c-0.002-0.497-0.365-0.633-0.688-0.793c-3.426-1.69-6.851-3.384-10.283-5.06c-0.823-0.402-0.862-0.377-1.287,0.476
		c-3.413,6.837-6.822,13.677-10.228,20.518c-0.499,1.002-0.493,1.021,0.54,1.536c3.311,1.649,6.626,3.288,9.94,4.931
		c0.182,0.09,0.368,0.173,0.551,0.26c0.368,0.176,0.64,0.045,0.811-0.288c0.482-0.94,0.954-1.886,1.421-2.833
		c0.183-0.37,0.027-0.616-0.318-0.785c-0.548-0.268-1.091-0.546-1.639-0.813c-1.643-0.803-3.294-1.589-4.929-2.408
		c-0.889-0.445-0.963-0.562-0.578-1.399c0.747-1.624,1.569-3.213,2.358-4.818c0.253-0.515,0.631-0.569,1.109-0.324
		c0.47,0.242,0.944,0.476,1.419,0.706c1.718,0.833,3.434,1.672,5.158,2.493c0.823,0.392,0.876,0.368,1.304-0.447
		c0.378-0.72,0.711-1.463,1.098-2.178c0.28-0.518,0.148-0.815-0.373-1.048c-0.63-0.281-1.238-0.613-1.855-0.923
		c-1.563-0.783-3.133-1.551-4.685-2.354c-0.791-0.41-0.831-0.54-0.464-1.34c0.44-0.96,0.927-1.899,1.392-2.849
		c0.241-0.492,0.596-0.619,1.098-0.38c0.734,0.35,1.483,0.665,2.213,1.023c1.35,0.662,2.689,1.348,4.036,2.016
		c1.169,0.58,1.172,0.576,1.786-0.638c0.275-0.545,0.551-1.088,0.818-1.637C247.042,348.6,247.126,348.371,247.209,348.173z
		 M366.595,354.063c-0.021-0.895-0.104-1.78-0.291-2.66c-0.904-4.263-5.04-6.853-9.241-5.686c-5.115,1.421-7.4,5.907-6.156,10.396
		c0.313,1.129,0.457,1.2,1.494,0.76c0.3-0.127,0.608-0.235,0.896-0.385c0.537-0.28,1.2-0.374,1.586-0.87
		c0.404-0.521-0.015-1.098-0.05-1.647c-0.137-2.19,1.21-3.879,3.387-4.195c1.971-0.287,3.599,1.017,4.062,3.181
		c0.271,1.268,0.161,2.498-0.112,3.741c-0.642,2.912-1.839,5.636-2.852,8.421c-0.693,1.909-1.366,3.829-2.15,5.702
		c-0.383,0.917-0.073,1.634,0.441,2.244c0.495,0.587,1.064-0.048,1.527-0.247c3.134-1.351,6.243-2.757,9.361-4.144
		c1.262-0.562,2.524-1.121,3.788-1.679c1.119-0.493,1.128-0.508,0.663-1.591c-0.24-0.56-0.473-1.125-0.736-1.674
		c-0.438-0.913-0.454-0.922-1.36-0.525c-2.047,0.896-4.087,1.807-6.132,2.708c-0.259,0.114-0.522,0.231-0.796,0.295
		c-0.307,0.07-0.472-0.089-0.396-0.405c0.075-0.315,0.178-0.626,0.284-0.933c0.521-1.496,1.069-2.983,1.563-4.489
		C366.047,358.33,366.566,356.243,366.595,354.063z M418.196,153.495c0.399-0.079,0.733-0.321,1.076-0.533
		c3.108-1.921,6.214-3.849,9.319-5.777c3.001-1.863,6-3.73,9.003-5.592c1.233-0.765,1.268-0.759,2.063,0.493
		c0.544,0.857,1.059,1.732,1.602,2.59c0.514,0.812,0.526,0.813,1.304,0.339c0.936-0.57,1.868-1.146,2.795-1.733
		c0.756-0.478,0.781-0.528,0.291-1.339c-1.111-1.843-2.248-3.671-3.377-5.503c-1.363-2.213-2.723-4.429-4.101-6.632
		c-0.492-0.789-0.577-0.799-1.338-0.347c-0.942,0.561-1.883,1.125-2.803,1.721c-0.734,0.475-0.746,0.512-0.321,1.246
		c0.569,0.984,1.194,1.936,1.774,2.913c0.48,0.809,0.446,0.908-0.356,1.451c-0.235,0.159-0.474,0.314-0.716,0.463
		c-4.801,2.968-9.604,5.934-14.404,8.902c-1.382,0.854-2.753,1.726-4.143,2.565c-0.535,0.323-0.61,0.651-0.261,1.179
		c0.672,1.016,1.291,2.066,1.936,3.1C417.69,153.245,417.854,153.484,418.196,153.495z M200.943,97.282
		c0.223-0.015,0.397,0.098,0.534,0.247c0.219,0.239,0.419,0.496,0.617,0.753c3.575,4.683,7.148,9.369,10.724,14.051
		c0.912,1.195,1.841,2.377,2.745,3.578c0.313,0.416,0.601,0.456,1.011,0.131c0.955-0.757,1.942-1.473,2.897-2.231
		c0.759-0.602,0.761-0.63,0.139-1.445c-2.365-3.102-4.745-6.193-7.112-9.293c-2.146-2.81-4.289-5.621-6.42-8.442
		c-0.672-0.89-0.655-0.938,0.245-1.644c0.895-0.702,1.788-1.409,2.713-2.07c0.506-0.362,0.604-0.692,0.203-1.196
		c-0.709-0.89-1.365-1.821-2.083-2.704c-0.577-0.709-0.621-0.713-1.377-0.146c-1.79,1.338-3.561,2.702-5.338,4.056
		c-1.939,1.478-3.88,2.953-5.813,4.439c-0.922,0.709-0.924,0.728-0.273,1.604c0.63,0.848,1.274,1.686,1.932,2.512
		c0.515,0.646,0.612,0.667,1.292,0.175c0.888-0.643,1.746-1.328,2.621-1.99C200.421,97.498,200.64,97.306,200.943,97.282z
		 M342.492,366.258c1.593,0.02,2.629,0.311,3.44,0.995c1.724,1.455,1.87,3.984,0.327,5.656c-1.595,1.729-4.727,1.96-6.067,0.136
		c-1.08-1.47-2.106-1.412-3.473-0.837c-0.26,0.11-0.546,0.157-0.817,0.243c-1.001,0.318-1.016,0.372-0.554,1.358
		c1.639,3.498,5.385,5.451,9.31,4.38c3.59-0.979,6.105-3.044,6.871-6.795c0.613-3.01-0.765-7.074-5.143-8.059
		c-1.508-0.339-1.514-0.312-0.621-1.486c1.988-2.619,1.547-5.984-1.054-8.021c-2.623-2.055-6.134-2.093-9.08-0.027
		c-2.155,1.512-3.188,3.63-3.104,6.27c0.025,0.779,0.141,0.859,0.87,0.678c0.67-0.167,1.327-0.386,1.997-0.553
		c0.758-0.188,1.253-0.542,1.506-1.374c0.424-1.394,1.563-2.045,2.943-2.212c1.523-0.185,2.884,1.109,2.847,2.651
		c-0.025,1.08-0.463,1.976-1.356,2.601c-0.43,0.301-0.904,0.541-1.372,0.783c-0.412,0.214-0.628,0.479-0.473,0.973
		c0.232,0.736,0.426,1.485,0.645,2.226c0.133,0.449,0.386,0.666,0.905,0.556C341.512,366.298,342.007,366.301,342.492,366.258z
		 M389.218,352.908c-0.316-2.665-1.743-5.131-4.686-6.529c-2.094-0.996-4.234-0.97-6.366-0.005
		c-0.825,0.373-1.051,0.237-1.123-0.597c-0.184-2.103-0.319-4.21-0.511-6.313c-0.229-2.528-0.063-2.468-2.542-2.14
		c-0.081,0.011-0.161,0.027-0.241,0.038c-1.551,0.203-1.551,0.203-1.456,1.78c0.002,0.04,0.002,0.081,0.006,0.122
		c0.328,3.965,0.646,7.932,0.994,11.896c0.109,1.253,0.236,2.511,0.463,3.746c0.7,3.813,3.608,6.294,7.479,6.479
		C385.518,361.593,389.248,357.809,389.218,352.908z M322.351,382.674c3.828,0.206,6.863-2.593,7.637-5.608
		c1.384-5.395-2.537-10.126-7.711-10.098c-0.849,0.005-0.905-0.05-0.65-0.907c0.231-0.777,0.517-1.539,0.78-2.307
		c0.566-1.65,1.148-3.296,1.697-4.952c0.315-0.95,0.274-1.014-0.62-1.338c-0.571-0.207-1.154-0.384-1.733-0.572
		c-1.23-0.399-1.233-0.399-1.64,0.785c-0.936,2.726-1.906,5.439-2.793,8.181c-0.824,2.546-1.862,5.021-2.448,7.647
		C313.759,378.484,318.389,382.998,322.351,382.674z M426.15,114.623c-0.209,0.154-0.476,0.335-0.725,0.537
		c-4.989,4.034-9.976,8.071-14.963,12.107c-2.115,1.711-4.236,3.415-6.348,5.132c-0.916,0.746-0.915,0.764-0.172,1.714
		c0.625,0.8,1.271,1.583,1.909,2.373c1.709,2.117,3.416,4.236,5.13,6.349c0.734,0.905,0.817,0.913,1.746,0.177
		c0.7-0.555,1.389-1.125,2.076-1.694c0.795-0.658,0.811-0.725,0.146-1.558c-1.164-1.46-2.345-2.908-3.524-4.356
		c-1.036-1.271-1.044-1.274,0.178-2.265c3.596-2.916,7.195-5.827,10.794-8.739c2.146-1.737,4.299-3.467,6.439-5.211
		c0.714-0.581,0.726-0.639,0.157-1.37c-0.747-0.962-1.532-1.894-2.301-2.839C426.567,114.822,426.458,114.646,426.15,114.623z
		 M184.149,105.264c-0.266-0.01-0.429,0.189-0.599,0.357c-0.781,0.771-1.561,1.543-2.33,2.326c-0.826,0.841-0.823,0.86,0.043,1.743
		c3.074,3.132,6.15,6.262,9.228,9.39c0.855,0.869,1.721,1.728,2.58,2.594c2.518,2.54,5.029,5.086,7.557,7.616
		c0.64,0.641,0.67,0.623,1.367-0.05c0.877-0.847,1.749-1.699,2.614-2.558c1.904-1.89,3.81-3.777,5.699-5.682
		c0.581-0.584,0.569-0.619-0.04-1.277c-0.662-0.716-1.337-1.42-2.028-2.107c-0.767-0.763-0.783-0.758-1.538-0.021
		c-1.368,1.333-2.73,2.671-4.093,4.009c-1.087,1.068-1.086,1.07-2.203-0.036c-0.029-0.028-0.058-0.058-0.086-0.086
		c-4.44-4.468-8.884-8.933-13.318-13.408c-0.771-0.778-1.498-1.602-2.25-2.398C184.587,105.499,184.419,105.314,184.149,105.264z
		 M216.183,80.351c-0.163,0.083-0.385,0.182-0.591,0.305c-0.697,0.417-1.39,0.842-2.083,1.268c-1.71,1.049-1.623,0.815-0.574,2.531
		c3.856,6.309,7.72,12.614,11.582,18.92c0.849,1.386,1.708,2.766,2.553,4.154c0.274,0.451,0.575,0.641,1.089,0.319
		c1.068-0.667,2.156-1.304,3.233-1.955c0.438-0.265,0.487-0.61,0.2-1.023c-0.116-0.167-0.214-0.345-0.32-0.519
		c-3.753-6.134-7.505-12.27-11.261-18.403c-1.018-1.663-2.044-3.322-3.071-4.98C216.773,80.699,216.647,80.372,216.183,80.351z
		 M232.792,340.828c-0.101-0.492-0.438-0.665-0.739-0.86c-2.381-1.555-4.764-3.105-7.147-4.654
		c-0.885-0.575-1.784-1.132-2.662-1.718c-0.459-0.307-0.798-0.291-1.108,0.207c-0.494,0.793-1.014,1.57-1.536,2.345
		c-0.284,0.421-0.225,0.753,0.199,1.026c0.717,0.461,1.435,0.922,2.151,1.384c0.994,0.642,1.022,0.744,0.399,1.712
		c-1.034,1.604-2.077,3.203-3.117,4.804c-2.323,3.577-4.647,7.152-6.967,10.731c-0.55,0.849-0.536,0.887,0.288,1.417
		c0.717,0.462,1.429,0.933,2.157,1.376c0.703,0.429,0.796,0.412,1.263-0.287c0.676-1.014,1.322-2.048,1.984-3.07
		c2.691-4.161,5.379-8.323,8.078-12.479c0.636-0.979,0.77-1.002,1.738-0.402c0.726,0.449,1.428,0.936,2.151,1.387
		c0.235,0.146,0.572,0.369,0.784,0.139C231.565,342.959,232.152,341.845,232.792,340.828z"/>
	
	<!-- Inner Circle -->
	<path fill-rule="evenodd" clip-rule="evenodd" fill="none" d="M425.042,223.499c-0.578,34.629-12.969,64.708-38.234,89.028
		c-24.435,23.52-53.935,35.192-87.872,34.701c-33.988-0.491-63.168-13.067-86.9-37.344c-24.068-24.622-35.979-54.501-35.39-88.959
		c0.588-34.419,13.53-63.83,38.365-87.599c24.874-23.806,54.927-35.346,89.333-34.389c33.061,0.919,61.534,13.375,84.762,36.928
		C412.868,159.96,424.551,189.266,425.042,223.499z M300.708,316.654c17.521,0,35.042-0.01,52.563,0.022
		c1.076,0.002,1.708-0.327,2.229-1.268c1.493-2.702,3.076-5.354,4.62-8.029c3.554-6.159,7.102-12.321,10.657-18.479
		c4.328-7.494,8.666-14.984,12.993-22.479c4.205-7.284,8.4-14.574,12.605-21.858c3.962-6.862,7.928-13.721,11.902-20.576
		c0.36-0.62,0.392-1.123,0.003-1.792c-4.834-8.329-9.627-16.682-14.44-25.022c-5.972-10.347-11.956-20.686-17.932-31.03
		c-4.857-8.409-9.71-16.821-14.566-25.231c-0.574-0.994-0.742-1.017-1.442-0.149c-5.842,7.244-11.674,14.496-17.521,21.736
		c-7.251,8.978-14.357,18.073-21.69,26.985c-0.413,0.501-0.85,0.994-1.188,1.543c-0.66,1.072-0.187,1.925,1.054,1.976
		c0.365,0.015,0.731,0.005,1.097,0.005c9.147,0,18.294,0,27.44,0.001c0.366,0,0.736-0.025,1.097,0.02
		c0.73,0.09,0.945,0.584,0.545,1.209c-0.087,0.135-0.208,0.25-0.318,0.368c-3.191,3.411-6.383,6.821-9.576,10.23
		c-2.444,2.608-4.89,5.215-7.338,7.819c-3.866,4.114-7.735,8.226-11.603,12.34c-2.476,2.634-4.948,5.271-7.423,7.906
		c-3.81,4.056-7.615,8.117-11.431,12.166c-3.399,3.606-6.812,7.2-10.217,10.8c-0.53,0.56-1.07,1.11-1.575,1.691
		c-0.344,0.396-0.456,0.869-0.164,1.352c0.26,0.431,0.663,0.338,1.083,0.299c0.848-0.078,1.702-0.121,2.554-0.123
		c4.675-0.011,9.35-0.004,14.025-0.007c0.446-0.001,0.899,0.017,1.338-0.049c2.475-0.37,4.942-0.084,7.408,0.084
		c0.806,0.055,1.145,0.798,0.794,1.53c-0.202,0.423-0.57,0.678-0.929,0.946c-3.455,2.574-6.903,5.156-10.363,7.723
		c-11.098,8.232-22.203,16.454-33.299,24.688c-7.637,5.666-15.267,11.344-22.896,17.02c-1.468,1.092-2.926,2.195-4.384,3.301
		c-0.249,0.188-0.563,0.337-0.493,0.758c0.147,0.891,0.905,1.549,1.851,1.573c0.365,0.01,0.731,0.003,1.097,0.003
		C266.154,316.654,283.431,316.654,300.708,316.654z M267.987,205.322c-0.545,0.158-0.994,0.195-1.249-0.312
		c-0.235-0.467-0.014-0.864,0.267-1.235c0.27-0.356,0.545-0.708,0.809-1.069c6.005-8.196,11.903-16.471,18.069-24.55
		c7.793-10.21,15.313-20.624,22.864-31.015c3.823-5.261,7.674-10.501,11.483-15.771c0.334-0.462,1.082-0.945,0.748-1.526
		c-0.261-0.455-1.058-0.19-1.613-0.19c-23.622-0.008-47.243-0.007-70.865-0.007c-0.244,0-0.49,0.022-0.731-0.003
		c-0.79-0.084-1.259,0.271-1.653,0.956c-5.047,8.77-10.125,17.522-15.185,26.285c-5.628,9.749-11.244,19.505-16.87,29.255
		c-4.102,7.11-8.213,14.215-12.318,21.323c-2.765,4.786-5.509,9.583-8.305,14.35c-0.536,0.915-0.536,1.631,0.015,2.563
		c3.016,5.109,5.967,10.256,8.931,15.396c5.969,10.35,11.926,20.706,17.898,31.053c5.972,10.348,11.957,20.688,17.937,31.032
		c1.342,2.321,2.67,4.652,4.036,6.961c0.467,0.788,0.676,0.779,1.204,0.028c0.959-1.362,1.897-2.739,2.834-4.117
		c6.86-10.081,13.717-20.164,20.573-30.248c0.182-0.268,0.373-0.54,0.491-0.838c0.363-0.918-0.042-1.625-1.021-1.756
		c-1.81-0.242-3.626-0.438-5.453-0.453c-3.537-0.029-7.074-0.032-10.611-0.047c-0.325-0.001-0.654,0.021-0.974-0.023
		c-0.584-0.08-0.831-0.48-0.677-1.043c0.089-0.325,0.324-0.559,0.526-0.813c0.811-1.017,1.663-2.004,2.423-3.057
		c4.405-6.095,9.041-12.016,13.56-18.024c3.883-5.164,7.879-10.244,11.768-15.405c5.699-7.563,11.347-15.166,17.019-22.75
		c0.316-0.423,0.687-0.81,0.964-1.257c0.694-1.12,0.283-2.046-0.98-2.342c-1.87-0.438-3.797-0.583-5.681-0.568
		c-4.557,0.038-9.078-0.557-13.626-0.588C272.362,205.5,270.126,205.662,267.987,205.322z"/>

	<!-- Left Bolt -->
	<path fill-rule="evenodd" clip-rule="evenodd" fill="none" d="M166.292,267.337c-0.375,0.157-0.718-0.055-1.048-0.149
		c-2.811-0.804-5.612-1.642-8.421-2.454c-0.446-0.129-0.973-0.512-1.359-0.117c-0.345,0.352,0.021,0.853,0.161,1.255
		c2.029,5.879,4.287,11.665,6.875,17.323c3.538,7.733,7.536,15.217,12.098,22.395c1.307,2.058,2.692,4.065,4.043,6.095
		c0.113,0.169,0.237,0.33,0.353,0.497c0.208,0.299,0.278,0.643-0.027,0.874c-0.318,0.243-0.514-0.113-0.693-0.301
		c-1.345-1.411-2.702-2.812-4.008-4.258c-4.278-4.736-8.322-9.666-12.081-14.826c-4.527-6.214-8.669-12.672-12.411-19.391
		c-3.007-5.4-5.751-10.927-8.253-16.576c-0.197-0.445-0.399-0.892-0.555-1.353c-0.208-0.612-0.076-0.837,0.572-0.87
		c1.014-0.052,2.032-0.037,3.047-0.06c2.353-0.052,4.699-0.273,7.055-0.26c0.927,0.005,1.036-0.159,0.882-1.129
		c-0.369-2.326-0.784-4.646-1.144-6.974c-0.602-3.894-1.013-7.809-1.397-11.729c-0.738-7.532-0.788-15.083-0.731-22.639
		c0.005-0.65,0.037-1.3,0.059-1.949c0.005-0.162,0.012-0.325,0.034-0.486c0.036-0.266,0.178-0.474,0.452-0.498
		c0.343-0.03,0.36,0.268,0.395,0.499c0.15,1.004,0.292,2.009,0.428,3.015c2.171,15.987,6.324,31.442,12.467,46.359
		c0.959,2.327,1.933,4.651,3.044,6.914C166.245,266.782,166.467,267.016,166.292,267.337z"/>
	
	<!-- Right Bolts -->
	<path fill-rule="evenodd" clip-rule="evenodd" fill="none" d="M435.086,267.53c0.522-1.673,1.235-2.994,1.834-4.359
		c3.044-6.93,5.64-14.021,7.802-21.273c2.498-8.385,4.413-16.902,5.743-25.549c0.29-1.886,0.528-3.78,0.791-5.671
		c0.027-0.201,0.054-0.403,0.086-0.604c0.027-0.172,0.12-0.337,0.296-0.321c0.145,0.013,0.316,0.108,0.409,0.222
		c0.189,0.231,0.185,0.535,0.172,0.817c-0.113,2.603,0.299,5.192,0.188,7.793c-0.279,6.487-0.409,12.981-1.13,19.446
		c-0.572,5.129-1.243,10.241-2.188,15.315c-0.336,1.807-0.324,1.826,1.552,1.827c3.006,0,5.999,0.336,9.007,0.301
		c1.062-0.013,1.211,0.273,0.774,1.273c-3.994,9.136-8.599,17.949-13.925,26.384c-5.175,8.196-10.946,15.944-17.344,23.224
		c-1.822,2.074-3.66,4.139-5.631,6.076c-0.267,0.262-0.545,0.825-0.966,0.51c-0.517-0.386,0.009-0.809,0.239-1.14
		c2.742-3.938,5.312-7.986,7.722-12.134c3.187-5.483,6.109-11.102,8.695-16.898c2.452-5.495,4.698-11.069,6.618-16.772
		c0.159-0.472,0.642-1.042,0.213-1.464c-0.357-0.354-0.905,0.081-1.357,0.211C441.566,265.646,438.449,266.554,435.086,267.53z"/>

	<!-- M -->
	<path fill-rule="evenodd" clip-rule="evenodd" fill="none" d="M252.23,75.519c-0.23,1.273-0.063,2.409-0.018,3.534
		c0.109,2.756,0.263,5.512,0.459,8.263c0.165,2.307,0.136,4.623,0.397,6.924c0.123,1.081,0.018,1.227-0.997,1.645
		c-0.863,0.356-1.748,0.665-2.6,1.045c-0.577,0.258-0.942,0.15-1.347-0.349c-1.511-1.86-3.07-3.681-4.609-5.518
		c-2.269-2.709-4.531-5.424-6.809-8.125c-0.251-0.298-0.435-0.702-0.971-0.786c-0.294,0.286-0.148,0.65-0.08,0.979
		c1.114,5.41,2.235,10.819,3.354,16.228c0.058,0.278,0.127,0.554,0.169,0.834c0.068,0.452-0.078,0.808-0.523,0.984
		c-1.133,0.447-2.266,0.895-3.406,1.324c-0.412,0.155-0.717,0.026-0.826-0.435c-0.14-0.593-0.295-1.183-0.418-1.779
		c-1.755-8.512-3.505-17.025-5.256-25.538c-0.057-0.278-0.112-0.558-0.154-0.838c-0.069-0.458,0.094-0.792,0.54-0.97
		c1.207-0.481,2.417-0.956,3.619-1.451c0.554-0.229,0.81,0.125,1.104,0.479c1.95,2.341,3.907,4.675,5.862,7.011
		c2.32,2.772,4.637,5.547,6.966,8.311c0.248,0.294,0.429,0.697,1.001,0.766c0.222-0.705,0.125-1.427,0.089-2.132
		c-0.139-2.755-0.306-5.509-0.457-8.264c-0.197-3.605-0.368-7.212-0.6-10.816c-0.039-0.606,0.144-0.917,0.662-1.12
		c1.059-0.416,2.111-0.846,3.172-1.257c0.983-0.38,1.025-0.371,1.558,0.503c0.909,1.492,1.802,2.993,2.703,4.49
		c3.836,6.368,7.672,12.735,11.508,19.103c0.832,1.381,0.833,1.381-0.715,2.002c-0.641,0.257-1.279,0.521-1.924,0.767
		c-1.173,0.447-1.325,0.397-1.967-0.661c-1.223-2.014-2.438-4.032-3.657-6.048c-1.64-2.711-3.278-5.423-4.924-8.13
		C252.935,76.16,252.781,75.769,252.23,75.519z"/>

	<!-- First O -->
	<path fill-rule="evenodd" clip-rule="evenodd" fill="none" d="M282.64,88.647c-7.526,0.539-14.884-6.323-15.329-14.263
		c-0.376-6.708,2.364-11.689,8.1-15.064c1.696-0.998,3.571-1.486,5.526-1.765c7.217-1.029,13.384,3.734,15.676,8.656
		c4.689,10.069-1.337,19.829-9.759,22.029c-0.626,0.164-1.262,0.334-1.903,0.392C284.186,88.699,283.411,88.647,282.64,88.647z
		 M292.939,73.177c-0.152-2.499-0.767-5.019-2.693-7.061c-2.44-2.587-5.357-3.826-8.957-3.327c-2.208,0.306-4.143,1.12-5.714,2.717
		c-2.244,2.28-3.1,5.033-2.978,8.211c0.271,7.021,6.777,11.097,12.81,9.568C289.645,82.212,292.885,78.269,292.939,73.177z"/>

	<!-- Seconed O -->
	<path fill-rule="evenodd" clip-rule="evenodd" fill="none" d="M413.925,107.818c0.31,7.243-6.217,15.827-15.899,15.75
		c-6.963-0.056-15.2-5.918-15.215-15.497c-0.013-8.844,7.327-15.897,15.846-15.827C406.514,92.309,414.127,98.736,413.925,107.818z
		 M408.725,107.638c-0.11-1.099-0.108-2.074-0.397-3.022c-1.617-5.309-7.252-8.318-12.58-6.718
		c-2.755,0.827-4.749,2.612-6.215,4.999c-2.193,3.571-2.103,7.265,0.118,10.705c2.426,3.757,6.011,5.285,10.503,4.479
		C404.655,117.271,408.841,112.798,408.725,107.638z"/>

	<!-- First B -->
	<path fill-rule="evenodd" clip-rule="evenodd" fill="none" d="M178.017,162.34c0.014,1.353-0.668,3.057-1.396,4.735
		c-0.907,2.086-1.875,4.146-2.828,6.212c-0.603,1.306-0.623,1.323-1.983,0.712c-2.891-1.299-5.77-2.623-8.654-3.934
		c-5.141-2.336-10.28-4.677-15.427-7c-1.651-0.746-1.664-0.725-0.899-2.347c0.831-1.764,1.646-3.536,2.509-5.285
		c0.633-1.282,1.426-2.47,2.486-3.442c2.801-2.569,6.64-2.755,9.526-0.323c0.826,0.696,1.403,1.57,1.776,2.581
		c0.126,0.343,0.248,0.688,0.369,1.033c0.173,0.493,0.458,0.491,0.836,0.212c0.391-0.289,0.794-0.563,1.198-0.834
		c3.608-2.417,7.923-0.938,10.194,1.53C177.175,157.767,178.003,159.63,178.017,162.34z M172.729,162.159
		c0.081-1.363-0.515-2.371-1.651-3.048c-1.794-1.067-4.063-0.662-5.383,0.964c-0.849,1.046-1.466,2.237-2.019,3.465
		c-0.266,0.59-0.067,0.904,0.481,1.137c0.784,0.334,1.553,0.704,2.329,1.056c1.183,0.537,2.367,1.071,3.549,1.61
		c0.417,0.19,0.798,0.222,1.032-0.257C171.832,165.515,172.568,163.932,172.729,162.159z M160.286,158.706
		c0.012-1.573-0.701-2.612-2.172-3.16c-1.415-0.528-2.708-0.162-3.692,1.048c-0.572,0.702-0.894,1.54-1.262,2.351
		c-0.183,0.403-0.06,0.704,0.35,0.888c1.664,0.75,3.325,1.503,4.987,2.256c0.363,0.165,0.636,0.05,0.815-0.283
		C159.833,160.834,160.285,159.84,160.286,158.706z"/>

	<!-- Seconed B -->
	<path fill-rule="evenodd" clip-rule="evenodd" fill="none" d="M370.818,104.836c-1.645,0.075-3.133-0.471-4.549-1.196
		c-2.564-1.315-5.099-2.688-7.64-4.049c-0.693-0.372-0.729-0.461-0.313-1.249c1.138-2.154,2.302-4.293,3.461-6.436
		c2.065-3.821,4.136-7.639,6.201-11.459c1.159-2.143,2.309-4.29,3.471-6.43c0.558-1.028,0.646-1.046,1.676-0.47
		c1.736,0.97,3.489,1.912,5.204,2.919c1.695,0.995,3.185,2.221,4.253,3.925c2.449,3.91,0.223,9.02-3.684,10.144
		c-1.622,0.466-1.644,0.539-0.771,1.995c2.938,4.902-0.276,10.864-5.614,12.176C371.972,104.839,371.385,104.797,370.818,104.836z
		 M374.232,95.497c-0.043-0.799-0.346-1.731-1.077-2.52c-1.012-1.091-2.244-1.856-3.559-2.506c-0.708-0.35-0.854-0.302-1.248,0.413
		c-0.999,1.81-1.986,3.627-2.958,5.452c-0.388,0.727-0.331,0.972,0.399,1.381c1.238,0.693,2.504,1.34,3.901,1.668
		C372.182,99.971,374.256,98.309,374.232,95.497z M374.939,87.37c1.51-0.003,2.574-0.764,3.122-2.234
		c0.481-1.293,0.152-2.562-0.93-3.502c-0.646-0.562-1.4-0.952-2.173-1.312c-0.449-0.209-0.785-0.124-1.021,0.304
		c-0.854,1.559-1.701,3.122-2.55,4.683c-0.218,0.399-0.083,0.684,0.279,0.915C372.67,86.861,373.717,87.364,374.939,87.37z"/>

	<!-- Bottom M -->
	<path fill-rule="evenodd" clip-rule="evenodd" fill="none" d="M293.236,367.768c-0.413,0.275-0.532,0.767-0.727,1.194
		c-1.923,4.213-3.837,8.431-5.755,12.646c-0.101,0.222-0.212,0.439-0.318,0.659c-0.219,0.453-0.574,0.667-1.081,0.615
		c-0.847-0.087-1.694-0.174-2.542-0.259c-0.577-0.059-0.679-0.512-0.778-0.952c-0.348-1.546-0.685-3.095-1.029-4.642
		c-0.733-3.292-1.468-6.583-2.208-9.874c-0.07-0.312-0.119-0.643-0.387-0.886c-0.523,0.111-0.5,0.592-0.601,0.949
		c-1.225,4.299-2.433,8.603-3.646,12.904c-0.077,0.273-0.164,0.545-0.232,0.82c-0.147,0.591-0.559,0.791-1.104,0.686
		c-0.722-0.14-1.449-0.173-2.178-0.227c-0.986-0.073-1.127-0.274-0.862-1.23c0.99-3.563,1.99-7.122,2.988-10.683
		c1.065-3.795,2.132-7.59,3.199-11.385c0.077-0.273,0.155-0.547,0.242-0.817c0.13-0.403,0.425-0.64,0.832-0.542
		c0.878,0.212,1.78,0.136,2.663,0.279c0.727,0.118,1.091,0.457,1.257,1.229c1.091,5.084,2.234,10.157,3.378,15.229
		c0.131,0.579,0.128,1.215,0.561,1.756c0.499-0.1,0.587-0.533,0.743-0.873c1.368-2.993,2.724-5.992,4.082-8.99
		c0.905-1.998,1.798-4.003,2.714-5.996c0.452-0.983,0.557-1.007,1.584-0.874c0.724,0.094,1.459,0.099,2.18,0.206
		c0.883,0.132,1.018,0.29,1.076,1.18c0.18,2.755,0.333,5.511,0.517,8.266c0.286,4.292,0.591,8.584,0.879,12.876
		c0.052,0.771,0.083,1.543,0.081,2.314c-0.002,0.757-0.066,0.813-0.862,0.787c-0.647-0.021-1.294-0.032-1.94-0.152
		c-1.274-0.234-1.234,0.024-1.41-1.517c-0.22-1.934-0.265-3.888-0.387-5.833c-0.167-2.674-0.332-5.348-0.505-8.021
		C293.64,368.306,293.693,367.946,293.236,367.768z"/>

	<!-- R -->
	<path fill-rule="evenodd" clip-rule="evenodd" fill="none" d="M304.899,85.096c0.397-4.406,0.801-8.812,1.188-13.219
		c0.285-3.235,0.542-6.473,0.825-9.708c0.124-1.415,0.298-2.825,0.415-4.241c0.052-0.631,0.366-0.869,0.955-0.8
		c3.34,0.389,6.717,0.447,10.009,1.259c3.234,0.798,5.514,3.551,5.761,6.912c0.185,2.499-0.274,4.865-2.075,6.788
		c-0.938,1.002-2.091,1.657-3.376,2.111c-0.996,0.353-1.018,0.379-0.595,1.383c1.528,3.632,3.078,7.255,4.616,10.883
		c0.19,0.449,0.373,0.901,0.544,1.357c0.172,0.457-0.071,0.604-0.479,0.566c-1.452-0.139-2.902-0.309-4.356-0.428
		c-0.616-0.05-0.791-0.477-0.984-0.933c-0.979-2.32-1.961-4.64-2.946-6.958c-0.635-1.496-1.273-2.99-1.917-4.482
		c-0.112-0.259-0.222-0.534-0.397-0.749c-0.315-0.387-0.764-0.284-0.893,0.211c-0.113,0.43-0.174,0.877-0.212,1.321
		c-0.276,3.195-0.54,6.391-0.808,9.587c-0.093,1.117-0.376,1.402-1.468,1.189c-0.967-0.188-1.948-0.088-2.907-0.274
		c-0.972-0.188-0.971-0.194-0.917-1.165c0.011-0.203,0.023-0.406,0.035-0.609C304.91,85.097,304.905,85.096,304.899,85.096z
		 M314.804,69.559c0.565-0.042,1.142-0.032,1.695-0.139c1.573-0.303,2.281-1.173,2.432-2.895c0.123-1.403-0.563-2.582-1.895-3.069
		c-1.307-0.478-2.686-0.608-4.071-0.632c-0.481-0.009-0.765,0.235-0.81,0.72c-0.155,1.657-0.307,3.313-0.457,4.971
		c-0.044,0.491,0.174,0.738,0.681,0.806C313.184,69.428,313.982,69.589,314.804,69.559z"/>

	<!-- Top A -->
	<path fill-rule="evenodd" clip-rule="evenodd" fill="none" d="M194.503,136.776c-0.55-0.137-1.102-0.268-1.651-0.411
		c-1.1-0.286-2.21-0.543-3.294-0.881c-0.733-0.229-1.199-0.067-1.645,0.574c-1.598,2.303-3.247,4.571-4.876,6.853
		c-0.425,0.595-0.814,1.22-1.282,1.779c-0.519,0.62-0.39,1.128,0.032,1.739c0.854,1.236,1.615,2.537,2.47,3.772
		c0.431,0.624,0.476,1.125-0.01,1.741c-0.704,0.892-1.32,1.852-2.001,2.763c-0.495,0.661-0.672,0.657-1.159-0.041
		c-0.743-1.067-1.458-2.154-2.174-3.24c-3.155-4.782-6.308-9.565-9.458-14.351c-1.586-2.41-3.167-4.823-4.746-7.237
		c-0.597-0.913-0.591-0.917,0.051-1.816c0.661-0.926,1.345-1.836,1.972-2.785c0.389-0.589,0.799-0.779,1.523-0.583
		c2.978,0.806,5.975,1.541,8.961,2.314c6.446,1.669,12.889,3.349,19.335,5.017c1.614,0.417,1.62,0.406,0.653,1.783
		c-0.561,0.798-1.129,1.59-1.698,2.382C195.263,136.489,194.997,136.799,194.503,136.776z M172.535,131.113
		c-0.171-0.01-0.391-0.081-0.506,0.153c-0.081,0.165,0.008,0.321,0.095,0.454c1.838,2.819,3.672,5.641,5.53,8.447
		c0.357,0.539,0.606,0.526,1.016-0.031c1.32-1.797,2.632-3.602,3.912-5.427c0.493-0.703,0.384-0.932-0.479-1.167
		c-1.485-0.405-2.978-0.783-4.471-1.16C175.941,131.955,174.25,131.54,172.535,131.113z"/>
		
	<!-- Top E -->
	<path fill-rule="evenodd" clip-rule="evenodd" fill="none" d="M334.057,85.117c-0.086,0.474,0.32,0.608,0.722,0.715
		c1.021,0.272,2.046,0.523,3.068,0.788c1.809,0.467,3.619,0.929,5.424,1.411c1.003,0.268,1.019,0.288,0.806,1.227
		c-0.243,1.07-0.508,2.136-0.797,3.194c-0.233,0.855-0.3,0.874-1.209,0.641c-4.406-1.131-8.813-2.26-13.218-3.397
		c-1.309-0.338-1.33-0.366-1.004-1.649c2.004-7.876,4.015-15.752,6.025-23.626c0.262-1.023,0.565-2.037,0.806-3.065
		c0.143-0.609,0.435-0.798,1.045-0.633c1.097,0.297,2.21,0.534,3.312,0.816c3.344,0.857,6.686,1.724,10.029,2.585
		c1.33,0.342,1.331,0.339,0.988,1.721c-0.225,0.907-0.431,1.82-0.682,2.72c-0.236,0.847-0.335,0.907-1.215,0.688
		c-2.562-0.639-5.111-1.326-7.678-1.943c-1.694-0.408-1.726-0.79-2.25,1.361c-0.211,0.869-0.478,1.724-0.688,2.592
		c-0.312,1.28-0.292,1.303,1.024,1.64c2.597,0.666,5.191,1.342,7.794,1.98c1.468,0.36,1.296,0.405,0.975,1.595
		c-0.201,0.745-0.371,1.499-0.559,2.248c-0.363,1.451-0.366,1.46-1.77,1.103c-2.52-0.642-5.035-1.295-7.553-1.943
		c-0.275-0.071-0.552-0.135-0.828-0.201c-0.434-0.104-0.709,0.059-0.82,0.493c-0.567,2.204-1.135,4.408-1.7,6.612
		C334.084,84.865,334.081,84.947,334.057,85.117z"/>

	<!-- S -->
	<path fill-rule="evenodd" clip-rule="evenodd" fill="none" d="M453.935,159.144c-0.037,1.909-0.623,3.631-1.369,5.313
		c-0.184,0.415-0.431,0.538-0.86,0.334c-1.1-0.522-2.205-1.037-3.319-1.528c-0.586-0.258-0.675-0.614-0.383-1.159
		c0.367-0.685,0.568-1.433,0.731-2.189c0.204-0.951,0.102-1.878-0.36-2.723c-0.47-0.859-1.154-1.441-2.227-1.444
		c-1.083-0.003-1.787,0.544-2.156,1.484c-0.489,1.246-0.905,2.522-1.315,3.798c-0.757,2.357-1.29,4.788-2.254,7.077
		c-1.04,2.472-2.736,4.298-5.312,5.217c-3.23,1.153-6.7,0.166-8.988-2.594c-1.611-1.943-2.451-4.23-2.548-6.72
		c-0.076-1.952,0.68-3.734,1.692-5.391c1.036-1.695,1.038-1.695,2.685-0.564c0.604,0.414,1.215,0.816,1.798,1.257
		c0.854,0.646,0.875,0.701,0.301,1.565c-0.548,0.826-0.964,1.706-1.138,2.673c-0.283,1.577,0.051,2.995,1.294,4.098
		c1.58,1.4,3.511,1.175,4.744-0.54c0.604-0.841,0.886-1.825,1.178-2.795c0.667-2.216,1.265-4.455,2.046-6.636
		c0.563-1.57,1.19-3.096,2.232-4.441c2.568-3.316,7.029-3.615,10.188-1.078C452.806,153.935,453.881,156.339,453.935,159.144z"/>

	<!-- A -->
	<path fill-rule="evenodd" clip-rule="evenodd" fill="none" d="M241.509,372.643c0.011-0.476,0.32-0.719,0.54-0.995
		c5.03-6.32,10.085-12.62,15.085-18.964c0.647-0.82,1.256-1.017,2.18-0.655c0.716,0.281,1.456,0.513,2.201,0.705
		c0.673,0.174,0.879,0.592,0.915,1.239c0.142,2.55,0.313,5.099,0.482,7.647c0.294,4.449,0.598,8.897,0.889,13.348
		c0.082,1.254,0.063,2.512,0.239,3.764c0.122,0.869-0.113,1.034-0.938,0.8c-0.741-0.21-1.464-0.495-2.214-0.663
		c-0.921-0.206-1.253-0.809-1.29-1.66s-0.048-1.704-0.085-2.556c-0.016-0.363-0.055-0.727-0.104-1.088
		c-0.066-0.483-0.313-0.786-0.813-0.94c-2.83-0.872-5.658-1.753-8.474-2.672c-0.737-0.24-1.228-0.067-1.681,0.53
		c-0.687,0.905-1.459,1.746-2.123,2.667c-0.518,0.718-1.1,0.865-1.891,0.546C243.463,373.306,242.396,373.185,241.509,372.643z
		 M259.023,366.365c-0.185-1.137-0.141-2.643-0.292-4.131c-0.099-0.97-0.099-1.942-0.204-2.908
		c-0.026-0.239-0.019-0.528-0.266-0.643c-0.333-0.153-0.517,0.133-0.688,0.347c-1.65,2.054-3.308,4.102-4.934,6.175
		c-0.521,0.664-0.46,0.846,0.335,1.113c1.536,0.516,3.086,0.99,4.633,1.472C258.956,368.21,259.062,368.126,259.023,366.365z"/>

	<!-- Bottom E -->
	<path fill-rule="evenodd" clip-rule="evenodd" fill="none" d="M247.209,348.173c-0.083,0.198-0.167,0.427-0.274,0.644
		c-0.268,0.549-0.543,1.092-0.818,1.637c-0.614,1.214-0.617,1.218-1.786,0.638c-1.347-0.668-2.686-1.354-4.036-2.016
		c-0.729-0.358-1.479-0.674-2.213-1.023c-0.502-0.239-0.857-0.112-1.098,0.38c-0.465,0.949-0.952,1.889-1.392,2.849
		c-0.366,0.8-0.327,0.93,0.464,1.34c1.552,0.804,3.122,1.571,4.685,2.354c0.618,0.31,1.225,0.642,1.855,0.923
		c0.521,0.232,0.653,0.53,0.373,1.048c-0.387,0.715-0.72,1.458-1.098,2.178c-0.428,0.815-0.481,0.839-1.304,0.447
		c-1.724-0.821-3.44-1.66-5.158-2.493c-0.476-0.23-0.95-0.464-1.419-0.706c-0.478-0.245-0.855-0.19-1.109,0.324
		c-0.789,1.605-1.612,3.194-2.358,4.818c-0.385,0.838-0.311,0.954,0.578,1.399c1.635,0.819,3.286,1.605,4.929,2.408
		c0.548,0.267,1.091,0.545,1.639,0.813c0.346,0.169,0.501,0.415,0.318,0.785c-0.468,0.947-0.939,1.893-1.421,2.833
		c-0.171,0.333-0.443,0.464-0.811,0.288c-0.183-0.087-0.369-0.17-0.551-0.26c-3.314-1.643-6.629-3.281-9.94-4.931
		c-1.033-0.516-1.039-0.534-0.54-1.536c3.405-6.841,6.814-13.681,10.228-20.518c0.425-0.853,0.464-0.878,1.287-0.476
		c3.433,1.676,6.857,3.369,10.283,5.06C246.845,347.54,247.208,347.676,247.209,348.173z"/>

	<!-- ~2~ -->
	<path fill-rule="evenodd" clip-rule="evenodd" fill="none" d="M366.595,354.064c-0.028,2.179-0.548,4.266-1.22,6.317
		c-0.494,1.506-1.043,2.993-1.563,4.489c-0.106,0.307-0.209,0.617-0.284,0.933c-0.076,0.316,0.089,0.476,0.396,0.405
		c0.273-0.063,0.537-0.181,0.796-0.295c2.045-0.901,4.085-1.813,6.132-2.708c0.906-0.396,0.922-0.388,1.36,0.525
		c0.264,0.549,0.496,1.114,0.736,1.674c0.465,1.083,0.456,1.098-0.663,1.591c-1.264,0.558-2.526,1.117-3.788,1.679
		c-3.118,1.387-6.228,2.793-9.361,4.144c-0.463,0.199-1.032,0.834-1.527,0.247c-0.515-0.61-0.824-1.327-0.441-2.244
		c0.784-1.873,1.457-3.793,2.15-5.702c1.013-2.785,2.21-5.509,2.852-8.421c0.273-1.243,0.383-2.474,0.112-3.741
		c-0.463-2.164-2.091-3.468-4.062-3.181c-2.177,0.316-3.523,2.005-3.387,4.195c0.035,0.55,0.454,1.127,0.05,1.647
		c-0.386,0.496-1.049,0.59-1.586,0.87c-0.287,0.149-0.596,0.258-0.896,0.385c-1.037,0.44-1.181,0.369-1.494-0.76
		c-1.244-4.489,1.041-8.976,6.156-10.396c4.201-1.167,8.337,1.423,9.241,5.686C366.491,352.283,366.573,353.169,366.595,354.064z"/>

	<!-- Seconed T -->
	<path fill-rule="evenodd" clip-rule="evenodd" fill="none" d="M418.196,153.495c-0.343-0.011-0.506-0.25-0.657-0.493
		c-0.645-1.034-1.264-2.084-1.936-3.1c-0.35-0.528-0.274-0.856,0.261-1.179c1.39-0.839,2.761-1.711,4.143-2.565
		c4.801-2.968,9.604-5.935,14.404-8.902c0.242-0.149,0.48-0.304,0.716-0.463c0.803-0.543,0.837-0.643,0.356-1.451
		c-0.58-0.978-1.205-1.929-1.774-2.913c-0.425-0.734-0.413-0.771,0.321-1.246c0.92-0.596,1.86-1.16,2.803-1.721
		c0.761-0.452,0.846-0.441,1.338,0.347c1.378,2.203,2.737,4.419,4.101,6.632c1.129,1.832,2.266,3.66,3.377,5.503
		c0.49,0.811,0.465,0.861-0.291,1.339c-0.927,0.586-1.859,1.163-2.795,1.733c-0.777,0.474-0.79,0.473-1.304-0.339
		c-0.543-0.858-1.058-1.733-1.602-2.59c-0.795-1.252-0.829-1.258-2.063-0.493c-3.003,1.862-6.002,3.729-9.003,5.592
		c-3.105,1.928-6.211,3.856-9.319,5.777C418.93,153.174,418.596,153.416,418.196,153.495z"/>

	<!-- First T  -->
	<path fill-rule="evenodd" clip-rule="evenodd" fill="none" d="M200.942,97.282c-0.302,0.024-0.521,0.216-0.746,0.386
		c-0.875,0.662-1.733,1.347-2.621,1.99c-0.679,0.492-0.776,0.471-1.292-0.175c-0.658-0.826-1.302-1.664-1.932-2.512
		c-0.651-0.876-0.649-0.895,0.273-1.604c1.933-1.486,3.874-2.961,5.813-4.439c1.777-1.354,3.548-2.718,5.338-4.056
		c0.757-0.566,0.801-0.563,1.377,0.146c0.718,0.882,1.374,1.814,2.083,2.704c0.402,0.503,0.304,0.833-0.203,1.196
		c-0.925,0.661-1.818,1.368-2.713,2.07c-0.899,0.706-0.917,0.754-0.245,1.644c2.131,2.821,4.275,5.632,6.42,8.442
		c2.368,3.1,4.747,6.191,7.112,9.293c0.622,0.815,0.62,0.843-0.139,1.445c-0.955,0.758-1.942,1.474-2.897,2.231
		c-0.41,0.325-0.698,0.285-1.011-0.131c-0.904-1.201-1.833-2.383-2.745-3.578c-3.576-4.683-7.148-9.368-10.724-14.051
		c-0.197-0.258-0.397-0.515-0.617-0.753C201.34,97.38,201.166,97.267,200.942,97.282z"/>

	<!-- ~3~  -->
	<path fill-rule="evenodd" clip-rule="evenodd" fill="none" d="M342.492,366.258c-0.485,0.043-0.98,0.04-1.453,0.141
		c-0.52,0.11-0.772-0.106-0.905-0.556c-0.219-0.74-0.412-1.489-0.645-2.226c-0.155-0.494,0.061-0.759,0.473-0.973
		c0.468-0.242,0.942-0.482,1.372-0.783c0.894-0.625,1.331-1.521,1.356-2.601c0.037-1.542-1.323-2.836-2.847-2.651
		c-1.381,0.167-2.52,0.818-2.943,2.212c-0.253,0.832-0.748,1.186-1.506,1.374c-0.67,0.167-1.327,0.386-1.997,0.553
		c-0.729,0.182-0.845,0.102-0.87-0.678c-0.084-2.64,0.949-4.758,3.104-6.27c2.946-2.065,6.457-2.027,9.08,0.027
		c2.601,2.037,3.042,5.402,1.054,8.021c-0.893,1.175-0.887,1.147,0.621,1.486c4.378,0.984,5.756,5.049,5.143,8.059
		c-0.766,3.751-3.281,5.816-6.871,6.795c-3.925,1.071-7.671-0.882-9.31-4.38c-0.462-0.986-0.447-1.04,0.554-1.358
		c0.271-0.086,0.558-0.133,0.817-0.243c1.366-0.575,2.393-0.633,3.473,0.837c1.341,1.824,4.473,1.593,6.067-0.136
		c1.543-1.672,1.396-4.201-0.327-5.656C345.121,366.568,344.085,366.277,342.492,366.258z"/>

	<!-- Seconed ~6~ -->
	<path fill-rule="evenodd" clip-rule="evenodd" fill="none" d="M389.218,352.908c0.03,4.9-3.7,8.685-7.983,8.479
		c-3.87-0.186-6.778-2.666-7.479-6.479c-0.227-1.235-0.354-2.493-0.463-3.746c-0.348-3.964-0.666-7.931-0.994-11.896
		c-0.004-0.041-0.004-0.082-0.006-0.122c-0.095-1.577-0.095-1.577,1.456-1.78c0.08-0.011,0.16-0.027,0.241-0.038
		c2.479-0.328,2.313-0.389,2.542,2.14c0.191,2.103,0.327,4.21,0.511,6.313c0.072,0.834,0.298,0.97,1.123,0.597
		c2.132-0.965,4.272-0.991,6.366,0.005C387.475,347.777,388.901,350.243,389.218,352.908z M381.555,357.148
		c1.939,0.02,3.336-1.397,3.351-3.4c0.015-2.036-1.567-3.745-3.515-3.796c-2.076-0.055-3.572,1.403-3.564,3.474
		C377.833,355.489,379.474,357.127,381.555,357.148z"/>

	<!-- First ~6~  -->
	<path fill-rule="evenodd" clip-rule="evenodd" fill="none" d="M322.351,382.674c-3.961,0.324-8.592-4.189-7.481-9.169
		c0.586-2.626,1.624-5.102,2.448-7.647c0.887-2.741,1.857-5.455,2.793-8.181c0.406-1.185,0.409-1.185,1.64-0.785
		c0.579,0.188,1.162,0.365,1.733,0.572c0.895,0.324,0.936,0.388,0.62,1.338c-0.549,1.656-1.131,3.302-1.697,4.952
		c-0.264,0.768-0.549,1.529-0.78,2.307c-0.255,0.857-0.198,0.912,0.65,0.907c5.174-0.028,9.095,4.703,7.711,10.098
		C329.214,380.081,326.179,382.88,322.351,382.674z M325.933,375.06c0.115-2.09-1.377-3.768-3.419-3.806
		c-2.064-0.038-3.497,1.575-3.494,3.446c0.003,2.162,1.547,3.979,3.494,3.888C324.562,378.491,325.969,377.052,325.933,375.06z"/>

	<!-- Seconed L  -->
	<path fill-rule="evenodd" clip-rule="evenodd" fill="none" d="M426.15,114.623c0.308,0.023,0.417,0.199,0.544,0.355
		c0.769,0.946,1.554,1.877,2.301,2.839c0.568,0.731,0.557,0.789-0.157,1.37c-2.141,1.744-4.293,3.474-6.439,5.211
		c-3.599,2.912-7.198,5.823-10.794,8.739c-1.222,0.991-1.214,0.994-0.178,2.265c1.18,1.448,2.36,2.896,3.524,4.356
		c0.664,0.833,0.648,0.899-0.146,1.558c-0.688,0.57-1.376,1.14-2.076,1.694c-0.929,0.736-1.012,0.729-1.746-0.177
		c-1.714-2.113-3.421-4.231-5.13-6.349c-0.638-0.79-1.284-1.573-1.909-2.373c-0.743-0.951-0.744-0.969,0.172-1.714
		c2.111-1.717,4.232-3.42,6.348-5.132c4.987-4.036,9.974-8.073,14.963-12.107C425.675,114.958,425.941,114.777,426.15,114.623z"/>

	<!-- First L -->
	<path fill-rule="evenodd" clip-rule="evenodd" fill="none" d="M184.149,105.264c0.27,0.05,0.438,0.235,0.603,0.41
		c0.753,0.797,1.479,1.62,2.25,2.398c4.434,4.475,8.877,8.94,13.318,13.408c0.029,0.029,0.057,0.058,0.086,0.086
		c1.117,1.106,1.115,1.104,2.203,0.036c1.362-1.338,2.725-2.677,4.093-4.009c0.755-0.736,0.771-0.742,1.538,0.021
		c0.691,0.688,1.366,1.392,2.028,2.107c0.609,0.658,0.621,0.692,0.04,1.277c-1.889,1.904-3.795,3.792-5.699,5.682
		c-0.865,0.858-1.737,1.711-2.614,2.558c-0.697,0.673-0.727,0.691-1.367,0.05c-2.528-2.53-5.039-5.076-7.557-7.616
		c-0.859-0.866-1.725-1.725-2.58-2.594c-3.078-3.128-6.153-6.258-9.228-9.39c-0.867-0.883-0.869-0.901-0.043-1.743
		c0.769-0.783,1.549-1.555,2.33-2.326C183.721,105.454,183.883,105.254,184.149,105.264z"/>

	<!-- I -->
	<path fill-rule="evenodd" clip-rule="evenodd" fill="none" d="M216.183,80.351c0.464,0.021,0.59,0.348,0.757,0.618
		c1.026,1.658,2.053,3.317,3.071,4.98c3.755,6.133,7.507,12.269,11.261,18.403c0.106,0.173,0.205,0.352,0.32,0.519
		c0.288,0.413,0.239,0.758-0.2,1.023c-1.078,0.651-2.166,1.288-3.233,1.955c-0.514,0.321-0.815,0.131-1.089-0.319
		c-0.844-1.389-1.704-2.769-2.553-4.154c-3.862-6.306-7.726-12.611-11.582-18.92c-1.049-1.716-1.136-1.481,0.574-2.531
		c0.693-0.425,1.386-0.85,2.083-1.268C215.798,80.532,216.02,80.434,216.183,80.351z"/>

	<!--Bottom T -->
	<path fill-rule="evenodd" clip-rule="evenodd" fill="none" d="M232.792,340.828c-0.641,1.017-1.228,2.131-2.083,3.057
		c-0.212,0.23-0.549,0.008-0.784-0.139c-0.724-0.451-1.426-0.938-2.151-1.387c-0.968-0.6-1.103-0.576-1.738,0.402
		c-2.699,4.155-5.387,8.317-8.078,12.479c-0.662,1.022-1.308,2.057-1.984,3.07c-0.466,0.699-0.56,0.716-1.263,0.287
		c-0.728-0.443-1.44-0.914-2.157-1.376c-0.823-0.53-0.838-0.568-0.288-1.417c2.319-3.579,4.644-7.154,6.967-10.731
		c1.04-1.601,2.083-3.199,3.117-4.804c0.624-0.968,0.595-1.07-0.399-1.712c-0.716-0.462-1.434-0.923-2.151-1.384
		c-0.424-0.273-0.483-0.605-0.199-1.026c0.522-0.774,1.042-1.552,1.536-2.345c0.31-0.498,0.649-0.514,1.108-0.207
		c0.878,0.586,1.776,1.143,2.662,1.718c2.384,1.549,4.767,3.1,7.147,4.654C232.354,340.163,232.692,340.336,232.792,340.828z"/>

	<!-- Right main Bolt -->
	<path fill-rule="evenodd" clip-rule="evenodd" fill="#000000" d="M300.708,316.654c-17.277,0-34.555,0-51.832,0c-0.366,0-0.732,0.007-1.097-0.003
		c-0.946-0.024-1.704-0.683-1.851-1.573c-0.07-0.421,0.245-0.569,0.493-0.758c1.458-1.105,2.916-2.209,4.384-3.301
		c7.63-5.676,15.259-11.354,22.896-17.02c11.097-8.233,22.202-16.455,33.299-24.688c3.46-2.566,6.908-5.148,10.363-7.723
		c0.359-0.269,0.727-0.523,0.929-0.946c0.351-0.732,0.011-1.476-0.794-1.53c-2.466-0.168-4.933-0.454-7.408-0.084
		c-0.439,0.065-0.892,0.048-1.338,0.049c-4.675,0.003-9.35-0.004-14.025,0.007c-0.852,0.002-1.706,0.045-2.554,0.123
		c-0.421,0.039-0.823,0.132-1.083-0.299c-0.292-0.482-0.18-0.955,0.164-1.352c0.505-0.581,1.045-1.132,1.575-1.691
		c3.406-3.6,6.818-7.193,10.217-10.8c3.816-4.049,7.622-8.109,11.431-12.166c2.475-2.635,4.947-5.272,7.423-7.906
		c3.867-4.114,7.736-8.226,11.603-12.34c2.448-2.604,4.894-5.211,7.338-7.819c3.193-3.409,6.385-6.819,9.576-10.23
		c0.11-0.118,0.231-0.233,0.318-0.368c0.4-0.625,0.186-1.119-0.545-1.209c-0.36-0.044-0.73-0.02-1.097-0.02
		c-9.146-0.001-18.293,0-27.44-0.001c-0.365,0-0.731,0.01-1.097-0.005c-1.241-0.051-1.714-0.903-1.054-1.976
		c0.338-0.55,0.775-1.042,1.188-1.543c7.333-8.912,14.439-18.007,21.69-26.985c5.847-7.24,11.679-14.492,17.521-21.736
		c0.7-0.868,0.868-0.845,1.442,0.149c4.856,8.41,9.709,16.822,14.566,25.231c5.976,10.344,11.96,20.684,17.932,31.03
		c4.813,8.34,9.606,16.693,14.44,25.022c0.389,0.668,0.357,1.171-0.003,1.792c-3.975,6.854-7.94,13.714-11.902,20.576
		c-4.205,7.284-8.4,14.574-12.605,21.858c-4.327,7.495-8.665,14.985-12.993,22.479c-3.556,6.158-7.104,12.32-10.657,18.479
		c-1.544,2.675-3.127,5.327-4.62,8.029c-0.521,0.94-1.152,1.27-2.229,1.268C335.751,316.645,318.229,316.654,300.708,316.654z"/>

	<!-- Left main Bolt -->
	<path fill-rule="evenodd" clip-rule="evenodd" fill="#000000" d="M267.987,205.322c2.139,0.339,4.375,0.178,6.606,0.193
		c4.548,0.031,9.069,0.626,13.626,0.588c1.883-0.015,3.811,0.13,5.681,0.568c1.263,0.296,1.674,1.222,0.98,2.342
		c-0.277,0.447-0.647,0.834-0.964,1.257c-5.671,7.584-11.319,15.187-17.019,22.75c-3.889,5.161-7.884,10.241-11.768,15.405
		c-4.519,6.009-9.154,11.93-13.56,18.024c-0.761,1.053-1.613,2.04-2.423,3.057c-0.202,0.254-0.437,0.487-0.526,0.813
		c-0.154,0.563,0.093,0.963,0.677,1.043c0.32,0.044,0.649,0.022,0.974,0.023c3.537,0.015,7.074,0.018,10.611,0.047
		c1.827,0.015,3.644,0.211,5.453,0.453c0.979,0.131,1.384,0.838,1.021,1.756c-0.118,0.298-0.31,0.57-0.491,0.838
		c-6.855,10.084-13.713,20.167-20.573,30.248c-0.938,1.378-1.875,2.755-2.834,4.117c-0.528,0.751-0.737,0.76-1.204-0.028
		c-1.366-2.309-2.693-4.64-4.036-6.961c-5.979-10.344-11.964-20.685-17.937-31.032c-5.972-10.347-11.93-20.703-17.898-31.053
		c-2.964-5.14-5.915-10.287-8.931-15.396c-0.55-0.932-0.551-1.648-0.015-2.563c2.796-4.768,5.541-9.564,8.305-14.35
		c4.105-7.108,8.216-14.213,12.318-21.323c5.626-9.75,11.241-19.506,16.87-29.255c5.06-8.763,10.137-17.515,15.185-26.285
		c0.394-0.684,0.863-1.04,1.653-0.956c0.241,0.025,0.487,0.003,0.731,0.003c23.622,0,47.243-0.001,70.865,0.007
		c0.556,0,1.353-0.264,1.613,0.19c0.334,0.581-0.414,1.064-0.748,1.526c-3.81,5.271-7.661,10.511-11.483,15.771
		c-7.551,10.391-15.071,20.804-22.864,31.015c-6.167,8.079-12.064,16.354-18.069,24.55c-0.264,0.36-0.539,0.713-0.809,1.069
		c-0.281,0.371-0.502,0.768-0.267,1.235C266.994,205.518,267.442,205.48,267.987,205.322z"/>


	<!-- Inner First O  -->
	<path fill-rule="evenodd" clip-rule="evenodd" fill="#000000" d="M292.939,73.177c-0.054,5.092-3.294,9.036-7.532,10.109
		c-6.033,1.528-12.54-2.547-12.81-9.568c-0.122-3.178,0.734-5.931,2.978-8.211c1.572-1.598,3.506-2.411,5.714-2.717
		c3.6-0.499,6.517,0.739,8.957,3.327C292.172,68.158,292.787,70.678,292.939,73.177z"/>
	
	<!-- Inner Seconed O -->
	<path fill-rule="evenodd" clip-rule="evenodd" fill="#000000" d="M408.725,107.638c0.116,5.16-4.069,9.633-8.571,10.441
		c-4.492,0.806-8.077-0.722-10.503-4.479c-2.221-3.44-2.312-7.134-0.118-10.705c1.466-2.386,3.46-4.171,6.215-4.999
		c5.328-1.6,10.963,1.409,12.58,6.718C408.616,105.564,408.614,106.539,408.725,107.638z"/>

	<!-- Inner First Bottomhalf B -->
	<path fill-rule="evenodd" clip-rule="evenodd" fill="#000000" d="M172.729,162.159c-0.162,1.772-0.898,3.355-1.663,4.927
		c-0.233,0.479-0.615,0.447-1.032,0.257c-1.182-0.539-2.366-1.073-3.549-1.61c-0.776-0.353-1.545-0.722-2.329-1.056
		c-0.548-0.233-0.747-0.547-0.481-1.137c0.553-1.228,1.17-2.418,2.019-3.465c1.32-1.626,3.589-2.031,5.383-0.964
		C172.215,159.788,172.81,160.796,172.729,162.159z"/>

	<!-- Inner First Tophalf B -->
	<path fill-rule="evenodd" clip-rule="evenodd" fill="#000000" d="M160.286,158.706c0,1.134-0.452,2.129-0.974,3.099
		c-0.179,0.333-0.452,0.448-0.815,0.283c-1.662-0.752-3.324-1.506-4.987-2.256c-0.41-0.185-0.533-0.485-0.35-0.888
		c0.368-0.811,0.69-1.648,1.262-2.351c0.985-1.209,2.277-1.576,3.692-1.048C159.585,156.094,160.298,157.132,160.286,158.706z"/>

	<!-- Inner Seconed Bottomhalf B -->
	<path fill-rule="evenodd" clip-rule="evenodd" fill="#000000" d="M374.232,95.497c0.023,2.812-2.051,4.474-4.541,3.889
		c-1.397-0.329-2.663-0.976-3.901-1.668c-0.73-0.409-0.787-0.654-0.399-1.381c0.972-1.825,1.959-3.642,2.958-5.452
		c0.395-0.715,0.54-0.763,1.248-0.413c1.314,0.649,2.547,1.415,3.559,2.506C373.887,93.766,374.189,94.698,374.232,95.497z"/>

	<!-- Inner Seconed Tophalf B -->
	<path fill-rule="evenodd" clip-rule="evenodd" fill="#000000"  d="M374.939,87.37c-1.223-0.006-2.27-0.509-3.271-1.146
		c-0.362-0.23-0.497-0.515-0.279-0.915c0.849-1.562,1.696-3.124,2.55-4.683c0.235-0.428,0.571-0.513,1.021-0.304
		c0.772,0.36,1.526,0.75,2.173,1.312c1.082,0.941,1.411,2.209,0.93,3.502C377.514,86.605,376.449,87.367,374.939,87.37z"/>

	<!-- Inner R -->
	<path fill-rule="evenodd" clip-rule="evenodd" fill="#000000" d="M314.804,69.559c-0.821,0.03-1.62-0.131-2.425-0.238
		c-0.507-0.067-0.725-0.314-0.681-0.806c0.149-1.657,0.302-3.314,0.457-4.971c0.045-0.485,0.329-0.729,0.81-0.72
		c1.386,0.024,2.765,0.154,4.071,0.632c1.333,0.487,2.018,1.666,1.895,3.069c-0.151,1.721-0.859,2.591-2.432,2.895
		C315.945,69.527,315.369,69.517,314.804,69.559z"/>
	<!-- Inner Top A -->
	<path fill-rule="evenodd" clip-rule="evenodd" fill="#000000" d="M172.535,131.113c1.714,0.426,3.406,0.841,5.095,1.269
		c1.493,0.377,2.986,0.755,4.471,1.16c0.864,0.235,0.972,0.465,0.479,1.167c-1.28,1.826-2.591,3.63-3.912,5.427
		c-0.41,0.558-0.658,0.57-1.016,0.031c-1.858-2.806-3.691-5.628-5.53-8.447c-0.087-0.133-0.176-0.29-0.095-0.454
		C172.145,131.032,172.364,131.104,172.535,131.113z"/>

	<!-- Inner Bottom A -->
	<path fill-rule="evenodd" clip-rule="evenodd" fill="#000000" d="M259.023,366.365c0.039,1.761-0.067,1.845-1.415,1.425
		c-1.547-0.481-3.097-0.956-4.633-1.472c-0.795-0.268-0.856-0.449-0.335-1.113c1.626-2.073,3.283-4.121,4.934-6.175
		c0.172-0.214,0.356-0.5,0.688-0.347c0.247,0.114,0.239,0.403,0.266,0.643c0.105,0.966,0.105,1.938,0.204,2.908
		C258.882,363.723,258.838,365.229,259.023,366.365z"/>

	<!-- Inner Seconed ~6~  -->
	<path fill-rule="evenodd" clip-rule="evenodd" fill="#0000" d="M381.555,357.148c-2.081-0.021-3.722-1.659-3.729-3.723
		c-0.008-2.07,1.488-3.528,3.564-3.474c1.947,0.051,3.529,1.76,3.515,3.796C384.891,355.751,383.494,357.168,381.555,357.148z"/>
	<!-- Inner First ~6~ -->
	<path fill-rule="evenodd" clip-rule="evenodd" fill="#000000" d="M325.933,375.06c0.036,1.992-1.371,3.432-3.419,3.528
		c-1.946,0.092-3.49-1.726-3.494-3.888c-0.003-1.871,1.429-3.484,3.494-3.446C324.556,371.292,326.048,372.97,325.933,375.06z"/>
</g>
</svg>
