<?xml version="1.0" encoding="utf-8"?>
<!-- Generator: Adobe Illustrator 16.0.0, SVG Export Plug-In . SVG Version: 6.00 Build 0)  -->
<!DOCTYPE svg PUBLIC "-//W3C//DTD SVG 1.1//EN" "http://www.w3.org/Graphics/SVG/1.1/DTD/svg11.dtd">
<svg version="1.1" id="Layer_1" xmlns="http://www.w3.org/2000/svg" xmlns:xlink="http://www.w3.org/1999/xlink" x="0px" y="0px"
	 width="480px" height="480px" viewBox="100 20 440 440" enable-background="new 0 0 480 480" xml:space="preserve">
<g>
	
	
	<path d="M120,20 h400 a20,20 0 0 1 20,20 v400 a20,20 0 0 1 -20,20 h-400 a20,20 0 0 1 -20,-20 v-400 a20,20 0 0 1 20,-20 z" fill="white" />

	<!-- <circle cx="320" cy="240" r="240" fill="green" /> -->

	
	<!-- Right Bolt -->
	<path fill-rule="evenodd" clip-rule="evenodd" fill="#1c407b" d="M320.3,420.478c-33.999,0-67.999,0-101.998,0c-1.898,0-3.137-0.972-3.569-2.762
		c-0.174-0.72,0.434-0.887,0.811-1.17c4.447-3.337,8.906-6.656,13.366-9.976c9.754-7.258,19.501-14.526,29.268-21.767
		c25.895-19.197,51.804-38.378,77.697-57.577c5.751-4.264,11.458-8.587,17.198-12.865c0.92-0.686,1.55-1.456,1.495-2.688
		c-0.069-1.597-0.672-2.268-2.279-2.276c-4.96-0.027-9.92-0.043-14.879-0.036c-6.16,0.008-12.319,0.027-18.479,0.07
		c-4.717,0.033-9.434,0.106-14.15,0.174c-0.477,0.007-0.959,0.061-1.426,0.158c-0.633,0.133-1.211,0.139-1.598-0.467
		c-0.377-0.592-0.361-1.219-0.021-1.822c0.136-0.24,0.313-0.467,0.506-0.664c7.548-7.666,14.769-15.64,22.166-23.448
		c10.009-10.566,19.942-21.203,29.907-31.811c7.392-7.868,14.78-15.74,22.173-23.607c8.845-9.411,17.694-18.817,26.54-28.227
		c4.601-4.894,9.196-9.792,13.803-14.681c0.584-0.62,1.003-1.265,0.659-2.144c-0.321-0.822-1.066-0.705-1.736-0.74
		c-7.114-0.37-14.233-0.104-21.35-0.155c-6.72-0.049-13.442-0.13-20.158,0.03c-4.759,0.113-9.508-0.164-14.262-0.04
		c-0.479,0.013-0.964-0.007-1.437,0.056c-0.836,0.111-1.637,0.106-2.123-0.709c-0.548-0.92-0.443-1.866,0.179-2.704
		c0.715-0.962,1.493-1.877,2.26-2.799c8.589-10.336,16.839-20.944,25.266-31.41c16.227-20.153,32.43-40.326,48.644-60.489
		c0.727-0.904,1.461-1.802,2.196-2.698c0.809-0.984,0.94-0.975,1.571,0.116c2.342,4.051,4.682,8.104,7.021,12.156
		c9.676,16.763,19.35,33.528,29.026,50.291c11.916,20.642,23.835,41.282,35.752,61.923c6.438,11.152,12.868,22.309,19.329,33.448
		c0.461,0.795,0.46,1.42,0.004,2.208c-9.034,15.609-18.05,31.23-27.066,46.85c-11.916,20.643-23.826,41.287-35.743,61.929
		c-10.518,18.217-21.041,36.431-31.56,54.646c-2.721,4.71-5.474,9.4-8.125,14.149c-0.66,1.182-1.442,1.556-2.76,1.554
		c-29.479-0.034-58.959-0.025-88.438-0.025C329.42,420.478,324.86,420.478,320.3,420.478z"/>

	<!-- Left Bolt -->
	<path fill-rule="evenodd" clip-rule="evenodd" fill="#1c407b" d="M287.861,60.173c23.317,0,46.635-0.001,69.953,0.011
		c0.53,0,1.287-0.293,1.548,0.243c0.255,0.527-0.43,0.96-0.745,1.394c-13.651,18.751-27.313,37.495-40.977,56.237
		c-11.92,16.353-24.137,32.485-36.296,48.66c-8.555,11.38-16.77,23.01-25.152,34.517c-0.493,0.677-1.076,1.288-1.581,1.958
		c-0.564,0.749-0.789,1.573-0.336,2.467c0.434,0.859,1.241,0.713,1.996,0.733c8.309,0.217,16.634,0.063,24.921,0.75
		c5.425,0.45,10.846,0.642,16.283,0.677c3.364,0.021,6.682,0.588,10.004,1.036c1.853,0.25,2.472,2.438,1.203,4.183
		c-1.387,1.907-2.865,3.748-4.277,5.637c-11.521,15.404-23.005,30.836-34.566,46.21c-5.792,7.702-11.893,15.168-17.672,22.882
		c-9.566,12.769-19.168,25.511-28.769,38.254c-1.058,1.404-2.208,2.738-3.305,4.114c-0.273,0.342-0.554,0.694-0.741,1.085
		c-0.644,1.343-0.06,2.323,1.427,2.339c3.479,0.037,6.959,0.045,10.438,0.036c7.116-0.018,14.226,0.064,21.307,0.88
		c0.198,0.023,0.399,0.03,0.599,0.029c0.999-0.006,1.927,0.119,2.436,1.156c0.526,1.073,0.209,1.994-0.42,2.912
		c-2.126,3.101-4.225,6.22-6.338,9.328c-6.723,9.889-13.438,19.782-20.174,29.662c-6.42,9.416-12.862,18.818-19.296,28.227
		c-0.78,1.14-0.844,1.142-1.544-0.071c-10.661-18.455-21.319-36.912-31.975-55.37c-14.414-24.969-28.825-49.94-43.238-74.909
		c-6.517-11.29-13.026-22.585-19.579-33.854c-0.557-0.957-0.555-1.674-0.007-2.619c8.424-14.529,16.819-29.075,25.216-43.62
		c10.996-19.046,21.986-38.097,32.982-57.143c10.217-17.696,20.438-35.389,30.658-53.083c4.56-7.895,9.142-15.777,13.657-23.697
		c0.563-0.989,1.209-1.272,2.285-1.271C241.146,60.18,264.504,60.173,287.861,60.173z"/>
</g>
</svg>
