<?xml version="1.0" encoding="utf-8"?>
<!-- Generator: Adobe Illustrator 16.0.0, SVG Export Plug-In . SVG Version: 6.00 Build 0)  -->
<!DOCTYPE svg PUBLIC "-//W3C//DTD SVG 1.1//EN" "http://www.w3.org/Graphics/SVG/1.1/DTD/svg11.dtd">
<svg version="1.1" id="Layer_1" xmlns="http://www.w3.org/2000/svg" xmlns:xlink="http://www.w3.org/1999/xlink" x="0px" y="0px"
	 width="640px" height="480px" viewBox="0 0 640 480" enable-background="new 0 0 640 480" xml:space="preserve">
<g>
	<!-- Background -->
	<path fill-rule="evenodd" clip-rule="evenodd" fill="none" d="M320.333,456.481c-71.64,0-143.28-0.004-214.92,0.032
		c-1.089,0-1.194-0.316-1.194-1.26c0.021-143.28,0.022-286.561-0.011-429.841c0-1.089,0.315-1.194,1.259-1.194
		c143.28,0.021,286.561,0.022,429.841-0.011c1.088,0,1.193,0.315,1.193,1.259c-0.021,143.28-0.022,286.561,0.011,429.841
		c0.001,1.088-0.315,1.194-1.259,1.193C463.614,456.479,391.974,456.481,320.333,456.481z M320.3,420.478c4.561,0,9.12,0,13.68,0
		c29.479,0,58.959-0.009,88.438,0.025c1.317,0.002,2.1-0.372,2.76-1.554c2.651-4.749,5.404-9.439,8.125-14.149
		c10.519-18.216,21.042-36.43,31.56-54.646c11.917-20.642,23.827-41.286,35.743-61.929c9.017-15.619,18.032-31.24,27.066-46.85
		c0.456-0.788,0.457-1.413-0.004-2.208c-6.461-11.139-12.891-22.296-19.329-33.448c-11.917-20.641-23.836-41.281-35.752-61.923
		c-9.677-16.763-19.351-33.527-29.026-50.291c-2.339-4.052-4.679-8.105-7.021-12.156c-0.631-1.091-0.763-1.1-1.571-0.116
		c-0.735,0.896-1.47,1.794-2.196,2.698c-16.214,20.164-32.417,40.336-48.644,60.489c-8.427,10.466-16.677,21.074-25.266,31.41
		c-0.767,0.922-1.545,1.837-2.26,2.799c-0.622,0.837-0.727,1.783-0.179,2.704c0.486,0.816,1.287,0.82,2.123,0.709
		c0.473-0.063,0.957-0.043,1.437-0.056c4.754-0.124,9.503,0.153,14.262,0.04c6.716-0.16,13.438-0.079,20.158-0.03
		c7.116,0.052,14.235-0.214,21.35,0.155c0.67,0.035,1.415-0.082,1.736,0.74c0.344,0.879-0.075,1.524-0.659,2.144
		c-4.606,4.888-9.202,9.787-13.803,14.681c-8.846,9.41-17.695,18.816-26.54,28.227c-7.393,7.867-14.781,15.739-22.173,23.607
		c-9.965,10.607-19.898,21.244-29.907,31.811c-7.397,7.809-14.618,15.782-22.166,23.448c-0.194,0.197-0.371,0.424-0.506,0.664
		c-0.34,0.604-0.355,1.23,0.021,1.822c0.387,0.605,0.965,0.6,1.598,0.467c0.466-0.098,0.949-0.151,1.426-0.158
		c4.716-0.067,9.433-0.141,14.15-0.174c6.16-0.043,12.319-0.063,18.479-0.07c4.959-0.007,9.919,0.009,14.879,0.036
		c1.607,0.009,2.21,0.68,2.279,2.276c0.055,1.231-0.575,2.002-1.495,2.688c-5.74,4.278-11.447,8.602-17.198,12.865
		c-25.894,19.199-51.802,38.38-77.697,57.577c-9.767,7.24-19.514,14.509-29.268,21.767c-4.46,3.319-8.919,6.639-13.366,9.976
		c-0.377,0.283-0.985,0.45-0.811,1.17c0.433,1.79,1.671,2.762,3.569,2.762C252.301,420.478,286.301,420.478,320.3,420.478z
		 M287.861,60.173c-23.357,0-46.715,0.006-70.073-0.019c-1.076-0.001-1.722,0.282-2.285,1.271
		c-4.515,7.92-9.097,15.802-13.657,23.697c-10.22,17.694-20.441,35.387-30.658,53.083c-10.996,19.046-21.986,38.097-32.982,57.143
		c-8.397,14.545-16.792,29.091-25.216,43.62c-0.548,0.945-0.549,1.662,0.007,2.619c6.553,11.269,13.062,22.563,19.579,33.854
		c14.414,24.969,28.824,49.94,43.238,74.909c10.656,18.458,21.314,36.915,31.975,55.37c0.7,1.213,0.765,1.211,1.544,0.071
		c6.434-9.408,12.875-18.811,19.296-28.227c6.736-9.88,13.451-19.773,20.174-29.662c2.113-3.108,4.212-6.228,6.338-9.328
		c0.629-0.918,0.946-1.839,0.42-2.912c-0.509-1.037-1.438-1.162-2.436-1.156c-0.2,0.001-0.401-0.006-0.599-0.029
		c-7.081-0.815-14.191-0.897-21.307-0.88c-3.479,0.009-6.959,0.001-10.438-0.036c-1.487-0.016-2.071-0.996-1.427-2.339
		c0.188-0.391,0.468-0.743,0.741-1.085c1.096-1.376,2.247-2.71,3.305-4.114c9.601-12.743,19.203-25.485,28.769-38.254
		c5.779-7.714,11.88-15.18,17.672-22.882c11.561-15.374,23.045-30.806,34.566-46.21c1.413-1.889,2.891-3.73,4.277-5.637
		c1.269-1.745,0.65-3.933-1.203-4.183c-3.322-0.448-6.64-1.015-10.004-1.036c-5.437-0.035-10.858-0.228-16.283-0.677
		c-8.288-0.688-16.612-0.534-24.921-0.75c-0.755-0.02-1.562,0.126-1.996-0.733c-0.452-0.895-0.228-1.719,0.336-2.467
		c0.504-0.669,1.087-1.28,1.581-1.958c8.382-11.507,16.597-23.137,25.152-34.517c12.16-16.175,24.376-32.307,36.296-48.66
		c13.663-18.743,27.325-37.486,40.977-56.237c0.315-0.434,1-0.867,0.745-1.394c-0.261-0.537-1.018-0.243-1.548-0.243
		C334.496,60.172,311.179,60.173,287.861,60.173z"/>
	
	<!-- Right Bolt -->
	<path fill-rule="evenodd" clip-rule="evenodd" fill="#000000" d="M320.3,420.478c-33.999,0-67.999,0-101.998,0c-1.898,0-3.137-0.972-3.569-2.762
		c-0.174-0.72,0.434-0.887,0.811-1.17c4.447-3.337,8.906-6.656,13.366-9.976c9.754-7.258,19.501-14.526,29.268-21.767
		c25.895-19.197,51.804-38.378,77.697-57.577c5.751-4.264,11.458-8.587,17.198-12.865c0.92-0.686,1.55-1.456,1.495-2.688
		c-0.069-1.597-0.672-2.268-2.279-2.276c-4.96-0.027-9.92-0.043-14.879-0.036c-6.16,0.008-12.319,0.027-18.479,0.07
		c-4.717,0.033-9.434,0.106-14.15,0.174c-0.477,0.007-0.959,0.061-1.426,0.158c-0.633,0.133-1.211,0.139-1.598-0.467
		c-0.377-0.592-0.361-1.219-0.021-1.822c0.136-0.24,0.313-0.467,0.506-0.664c7.548-7.666,14.769-15.64,22.166-23.448
		c10.009-10.566,19.942-21.203,29.907-31.811c7.392-7.868,14.78-15.74,22.173-23.607c8.845-9.411,17.694-18.817,26.54-28.227
		c4.601-4.894,9.196-9.792,13.803-14.681c0.584-0.62,1.003-1.265,0.659-2.144c-0.321-0.822-1.066-0.705-1.736-0.74
		c-7.114-0.37-14.233-0.104-21.35-0.155c-6.72-0.049-13.442-0.13-20.158,0.03c-4.759,0.113-9.508-0.164-14.262-0.04
		c-0.479,0.013-0.964-0.007-1.437,0.056c-0.836,0.111-1.637,0.106-2.123-0.709c-0.548-0.92-0.443-1.866,0.179-2.704
		c0.715-0.962,1.493-1.877,2.26-2.799c8.589-10.336,16.839-20.944,25.266-31.41c16.227-20.153,32.43-40.326,48.644-60.489
		c0.727-0.904,1.461-1.802,2.196-2.698c0.809-0.984,0.94-0.975,1.571,0.116c2.342,4.051,4.682,8.104,7.021,12.156
		c9.676,16.763,19.35,33.528,29.026,50.291c11.916,20.642,23.835,41.282,35.752,61.923c6.438,11.152,12.868,22.309,19.329,33.448
		c0.461,0.795,0.46,1.42,0.004,2.208c-9.034,15.609-18.05,31.23-27.066,46.85c-11.916,20.643-23.826,41.287-35.743,61.929
		c-10.518,18.217-21.041,36.431-31.56,54.646c-2.721,4.71-5.474,9.4-8.125,14.149c-0.66,1.182-1.442,1.556-2.76,1.554
		c-29.479-0.034-58.959-0.025-88.438-0.025C329.42,420.478,324.86,420.478,320.3,420.478z"/>

	<!-- Left Bolt -->
	<path fill-rule="evenodd" clip-rule="evenodd" fill="#000000" d="M287.861,60.173c23.317,0,46.635-0.001,69.953,0.011
		c0.53,0,1.287-0.293,1.548,0.243c0.255,0.527-0.43,0.96-0.745,1.394c-13.651,18.751-27.313,37.495-40.977,56.237
		c-11.92,16.353-24.137,32.485-36.296,48.66c-8.555,11.38-16.77,23.01-25.152,34.517c-0.493,0.677-1.076,1.288-1.581,1.958
		c-0.564,0.749-0.789,1.573-0.336,2.467c0.434,0.859,1.241,0.713,1.996,0.733c8.309,0.217,16.634,0.063,24.921,0.75
		c5.425,0.45,10.846,0.642,16.283,0.677c3.364,0.021,6.682,0.588,10.004,1.036c1.853,0.25,2.472,2.438,1.203,4.183
		c-1.387,1.907-2.865,3.748-4.277,5.637c-11.521,15.404-23.005,30.836-34.566,46.21c-5.792,7.702-11.893,15.168-17.672,22.882
		c-9.566,12.769-19.168,25.511-28.769,38.254c-1.058,1.404-2.208,2.738-3.305,4.114c-0.273,0.342-0.554,0.694-0.741,1.085
		c-0.644,1.343-0.06,2.323,1.427,2.339c3.479,0.037,6.959,0.045,10.438,0.036c7.116-0.018,14.226,0.064,21.307,0.88
		c0.198,0.023,0.399,0.03,0.599,0.029c0.999-0.006,1.927,0.119,2.436,1.156c0.526,1.073,0.209,1.994-0.42,2.912
		c-2.126,3.101-4.225,6.22-6.338,9.328c-6.723,9.889-13.438,19.782-20.174,29.662c-6.42,9.416-12.862,18.818-19.296,28.227
		c-0.78,1.14-0.844,1.142-1.544-0.071c-10.661-18.455-21.319-36.912-31.975-55.37c-14.414-24.969-28.825-49.94-43.238-74.909
		c-6.517-11.29-13.026-22.585-19.579-33.854c-0.557-0.957-0.555-1.674-0.007-2.619c8.424-14.529,16.819-29.075,25.216-43.62
		c10.996-19.046,21.986-38.097,32.982-57.143c10.217-17.696,20.438-35.389,30.658-53.083c4.56-7.895,9.142-15.777,13.657-23.697
		c0.563-0.989,1.209-1.272,2.285-1.271C241.146,60.18,264.504,60.173,287.861,60.173z"/>
</g>
</svg>
